<svg width="219.99999999999997" height="61" xmlns="http://www.w3.org/2000/svg" fill="none">
 <mask height="61" width="474" y="0" x="0" maskUnits="userSpaceOnUse" id="mask0_750_3091">
  <path id="svg_1" fill="white" d="m474.00049,0.00464l-474,0l0,61l474,0l0,-61z"/>
 </mask>

 <g>
  <title>Layer 1</title>
  <mask height="61" width="474" y="0" x="0" maskUnits="userSpaceOnUse" id="mask1_750_3091">
   <path id="svg_3" fill="white" d="m474,0l-474,0l0,61l474,0l0,-61z"/>
  </mask>
  <g id="svg_198">
   <path id="svg_5" fill="#F4F4F4" d="m77.11999,11.44754l-1.2187,0c-0.0857,0 -0.1286,0.0435 -0.1286,0.1306l0,1.0639c0,0.0871 0.0429,0.1306 0.1286,0.1306l1.2187,0c0.0857,0 0.1238,-0.0435 0.1238,-0.1306l0,-1.0639c0,-0.0871 -0.0429,-0.1306 -0.1238,-0.1306z"/>
   <path id="svg_6" fill="#F4F4F4" d="m94.61579,13.62384c-0.1238,-0.3434 -0.3332,-0.6384 -0.5427,-0.8512c-0.2523,-0.2128 -0.5047,-0.3821 -0.8379,-0.5127c-0.2952,-0.087 -0.676,-0.1305 -1.0474,-0.1305c-1.0235,0 -1.9709,0.4304 -2.3518,1.4508c-0.1238,0.3386 -0.2095,0.7642 -0.2095,1.2381l0,0.3821c0,0.2902 -0.0428,0.5755 -0.1904,0.8367c-0.1428,0.2515 -0.3999,0.3143 -0.6617,0.3143l-8.1267,0c-0.338,0 -0.5903,-0.0387 -0.7569,-0.1692c-0.2095,-0.1693 -0.2952,-0.3386 -0.2952,-0.5997l0,-2.0458c0,-0.087 -0.0428,-0.1306 -0.1285,-0.1306l-1.1759,0c-0.0857,0 -0.1286,0.0436 -0.1286,0.1306l0,3.7965c0,0.5513 -0.1666,0.9769 -0.4618,1.2381c-0.2951,0.2515 -0.676,0.382 -1.1759,0.382c-0.1666,0 -0.3761,-0.0435 -0.5856,-0.0822c-0.2094,-0.0435 -0.376,-0.1305 -0.5427,-0.2611c-0.1666,-0.1693 -0.2951,-0.3386 -0.3808,-0.5514c-0.1286,-0.2128 -0.1667,-0.5126 -0.1667,-0.8511c0,-0.387 0.0429,-0.7255 0.1667,-1.0253c0.1237,-0.3386 0.2523,-0.5997 0.338,-1.0205l-1.0045,-0.3821c-0.0857,-0.0435 -0.1667,-0.0435 -0.2095,0c-0.2095,0.3434 -0.3761,0.7255 -0.5047,1.1946c-0.1666,0.4691 -0.2094,0.9382 -0.2094,1.3638c0,0.5127 0.0428,0.9383 0.2094,1.2768c0.1667,0.3869 0.3809,0.6819 0.6713,0.9382c0.2523,0.2128 0.5903,0.4256 0.9664,0.5127c0.3761,0.1306 0.7951,0.1693 1.2188,0.1693c0.4618,0 0.8807,-0.0436 1.2568,-0.1693c0.3809,-0.0871 0.7141,-0.295 1.0093,-0.5127c0.2476,-0.2563 0.4618,-0.5561 0.6284,-0.9382c0.1286,-0.3385 0.2095,-0.7641 0.2095,-1.2332l0,-0.1693c0,0.0387 0.1048,0.1209 0.1286,0.1451c0.257,0.2321 0.6189,0.2563 0.9426,0.2756c0.7093,0.0339 1.4282,0.0097 2.1423,0.0049c0.3999,0 0.7998,0 1.1997,0l4.4371,0c0.2475,0 0.5046,-0.0049 0.7522,-0.0484c0.1285,-0.0242 0.257,-0.0532 0.3808,-0.1015c0.1238,-0.0436 0.2285,-0.121 0.338,-0.1935c0.1286,-0.087 0.2095,-0.1693 0.2952,-0.2998c0.2523,0.2563 0.5046,0.4255 0.8379,0.5561c0.3332,0.1258 0.7094,0.1693 1.1331,0.1693c0.4237,0 0.7522,-0.0435 1.0902,-0.1693c0.2951,-0.087 0.5855,-0.2563 0.795,-0.4691c0.2523,-0.2128 0.419,-0.5126 0.5427,-0.8512c0.1286,-0.3434 0.1667,-0.7689 0.1667,-1.2816c0,-0.5126 -0.0381,-0.9334 -0.1667,-1.3203m-1.5091,2.4713c-0.1666,0.2515 -0.5047,0.3821 -0.9236,0.3821c-0.3809,0 -0.6713,-0.1306 -0.8807,-0.3821c-0.2095,-0.2128 -0.2952,-0.6432 -0.2952,-1.151c0,-0.5078 0.0857,-0.8947 0.2952,-1.151c0.2094,-0.2563 0.4998,-0.3869 0.8807,-0.3869c0.8379,0 1.2187,0.5126 1.2187,1.5331c0,0.5126 -0.0856,0.8947 -0.2951,1.151"/>
   <path id="svg_7" fill="#F4F4F4" d="m99.99069,9.35328l-1.3853,0c-0.0238,0 -0.0905,-0.10639 -0.1095,-0.12574c-0.0238,-0.03869 -0.0572,-0.07254 -0.0857,-0.11123c-0.0619,-0.07738 -0.1048,-0.16927 -0.1333,-0.26116c-0.0762,-0.24182 -0.0667,-0.54167 0.1095,-0.73028c0.1333,-0.14509 0.338,-0.19345 0.5284,-0.16443c0.2095,0.02418 0.5285,0.29017 0.5285,0.29017l0.4618,-0.34337c0,-0.04353 -0.2524,-0.38207 -0.4618,-0.46912c-0.3809,-0.1596 -0.8379,-0.19345 -1.214,0c-0.2285,0.11607 -0.4142,0.24665 -0.5523,0.46912c-0.1761,0.2805 -0.238,0.60453 -0.1618,0.92373c0.0238,0.09189 0.0571,0.17894 0.0809,0.26599c0.0047,0.02418 0.0619,0.25149 0.0857,0.25149l-0.5428,0l0,0.60453l2.8517,0l0,-0.60453l0,0.00483z"/>
   <path id="svg_8" fill="#F4F4F4" d="m109.55949,9.10173l0,6.90621c0,0.5513 -0.085,0.9769 -0.338,1.2381c-0.209,0.2515 -0.585,0.382 -1.133,0.382l-4.194,0c-0.338,0 -0.586,-0.0435 -0.838,-0.1305c-0.252,-0.0822 -0.424,-0.2515 -0.59,-0.5127c-0.129,0.2128 -0.295,0.3869 -0.505,0.4691c-0.247,0.1258 -0.543,0.1693 -0.923,0.1693l-5.4134,0c-0.0857,0 -0.1237,-0.0435 -0.1237,-0.1306l0,-1.0204c0,-0.0822 0.0428,-0.1258 0.1237,-0.1258l2.2661,0l0,-5.4601c0,-0.0871 0.0429,-0.1258 0.1286,-0.1258l1.1759,0c0.0857,0 0.1285,0.0387 0.1285,0.1258l0,5.4601l1.2993,0c0.124,0 0.253,0 0.334,-0.0435c0.085,-0.0435 0.128,-0.087 0.166,-0.1693c0.043,-0.1257 0.086,-0.2128 0.086,-0.3869l0,-6.64985c0,-0.08705 0.043,-0.13058 0.129,-0.13058l1.175,0c0.086,0 0.124,0.04353 0.124,0.13058l0,6.60635c0.086,0.4256 0.424,0.6432 1.048,0.6432l3.861,0c0.209,0 0.376,-0.0435 0.461,-0.1305c0.086,-0.0871 0.124,-0.2564 0.124,-0.5127l0,-6.60635c0,-0.08705 0.043,-0.13058 0.129,-0.13058l1.176,0c0.085,0 0.128,0.04353 0.128,0.13058"/>
   <path id="svg_9" fill="#F4F4F4" d="m114.16349,16.27404c0,0.3192 0.057,0.59 0.176,0.8028c0.119,0.2128 0.271,0.3869 0.457,0.5175c0.186,0.1258 0.391,0.2128 0.629,0.266c0.233,0.0484 0.476,0.0726 0.718,0.0726l2.509,0c0.491,-0.0049 0.819,-0.0677 1.005,-0.1983c0.181,-0.1354 0.271,-0.295 0.271,-0.4885c0,-0.1306 -0.071,-0.2563 -0.209,-0.3821c-0.138,-0.1257 -0.314,-0.2611 -0.529,-0.4014c-0.219,-0.1354 -0.447,-0.2901 -0.685,-0.4497c-0.248,-0.1645 -0.476,-0.3483 -0.686,-0.5514c-0.214,-0.2031 -0.39,-0.4352 -0.528,-0.6964c-0.138,-0.2563 -0.21,-0.5562 -0.21,-0.8947c0,-0.3047 0.057,-0.59 0.176,-0.856c0.119,-0.266 0.281,-0.4982 0.5,-0.7013c0.215,-0.1983 0.472,-0.353 0.772,-0.4739c0.304,-0.1113 0.642,-0.1693 1.018,-0.1693c0.581,0 1.048,0.0919 1.4,0.2757c0.348,0.1837 0.643,0.4207 0.89,0.7157c0.048,0.0629 0.038,0.1209 -0.043,0.179l-0.68,0.6722c-0.067,0.0532 -0.129,0.0484 -0.176,-0.0145c-0.177,-0.1741 -0.367,-0.3095 -0.567,-0.4111c-0.205,-0.0967 -0.452,-0.1499 -0.747,-0.1499c-0.296,0 -0.538,0.0822 -0.762,0.237c-0.229,0.1547 -0.338,0.3869 -0.338,0.6916c0,0.1982 0.071,0.3869 0.214,0.561c0.143,0.1692 0.324,0.3288 0.538,0.4933c0.219,0.1596 0.448,0.324 0.695,0.4933c0.243,0.1644 0.481,0.3482 0.69,0.5368c0.215,0.1934 0.391,0.3966 0.538,0.6239c0.143,0.2224 0.21,0.4788 0.21,0.7641c0,0.2563 -0.043,0.4933 -0.138,0.7254c-0.086,0.2274 -0.238,0.4305 -0.443,0.6046c-0.2,0.1693 -0.462,0.3095 -0.781,0.4062c-0.319,0.0968 -0.704,0.1451 -1.152,0.1451l-2.937,0c-1.095,0.0049 -1.905,-0.2515 -2.442,-0.7593c-0.534,-0.503 -0.8,-1.1945 -0.8,-2.0699c0,-0.4546 0.071,-0.9141 0.214,-1.3687c0.143,-0.4594 0.319,-0.8512 0.528,-1.18c0.048,-0.0774 0.105,-0.0871 0.196,-0.0242l1.018,0.4062c0.043,0.0145 0.067,0.0387 0.072,0.0677c0,0.0339 0,0.0629 -0.019,0.0968c-0.138,0.2369 -0.262,0.5126 -0.386,0.827c-0.119,0.3192 -0.181,0.6625 -0.181,1.0494m1.662,5.1265c-0.081,0 -0.129,-0.0435 -0.129,-0.1257l0,-1.0882c0,-0.0871 0.043,-0.1306 0.129,-0.1306l1.061,0c0.081,0 0.129,0.0435 0.129,0.1306l0,1.0882c0,0.0822 -0.043,0.1257 -0.129,0.1257l-1.061,0zm1.637,0c-0.081,0 -0.123,-0.0435 -0.123,-0.1257l0,-1.0882c0,-0.0871 0.038,-0.1306 0.123,-0.1306l1.062,0c0.086,0 0.129,0.0387 0.129,0.1258l0,1.0881c0,0.0822 -0.043,0.1258 -0.129,0.1258l-1.062,0l0,0.0048z"/>
   <path id="svg_10" fill="#F4F4F4" d="m127.77949,15.44704c0,0.4208 -0.038,0.769 -0.115,1.0447c-0.071,0.2756 -0.185,0.503 -0.342,0.6674c-0.153,0.1693 -0.343,0.2853 -0.581,0.3579c-0.233,0.0677 -0.51,0.1015 -0.833,0.1015l-2.928,0c-0.086,0 -0.129,-0.0387 -0.129,-0.1257l0,-1.0011c0,-0.0871 0.043,-0.1306 0.129,-0.1306l2.342,0c0.229,0 0.41,-0.0193 0.548,-0.0484c0.133,-0.0338 0.238,-0.0919 0.304,-0.1692c0.072,-0.0822 0.115,-0.1838 0.138,-0.3144c0.019,-0.1257 0.034,-0.2805 0.034,-0.4691l0,-0.8512c0,-0.7399 -0.429,-1.1123 -1.286,-1.1123l-1.518,0c-0.081,0 -0.124,-0.0436 -0.124,-0.1258l0,-1.0156c0,-0.0871 0.043,-0.1257 0.124,-0.1257l2.018,0c0.671,0 1.209,0.1837 1.609,0.5513c0.4,0.3675 0.6,0.9382 0.6,1.7169l0,1.0543l0.01,-0.0049z"/>
   <path id="svg_11" fill="#F4F4F4" d="m165.87049,8.97608l-1.176,0c-0.081,0 -0.124,0.04352 -0.124,0.12574l0,6.56282c0,0.2563 -0.043,0.4256 -0.167,0.5513c-0.085,0.0871 -0.209,0.1306 -0.419,0.1306l-2.351,0c-0.338,0 -0.586,-0.0435 -0.795,-0.2128c-0.167,-0.1257 -0.253,-0.2998 -0.253,-0.5561l0,-3.1098c0,-0.0822 -0.043,-0.1257 -0.128,-0.1257l-1.176,0c-0.081,0 -0.129,0.0435 -0.129,0.1257l0,2.6455c0,0.2563 -0.038,0.4691 -0.038,0.6384c0,0.1692 -0.043,0.2998 -0.124,0.382c-0.043,0.0822 -0.128,0.1306 -0.252,0.1693c-0.124,0.0435 -0.295,0.0435 -0.462,0.0435c-0.295,0 -0.504,-0.0435 -0.628,-0.1692c-0.167,-0.1258 -0.253,-0.3434 -0.253,-0.5997l0,-2.0845c0,-0.087 -0.042,-0.1306 -0.128,-0.1306l-1.176,0c-0.086,0 -0.124,0.0436 -0.124,0.1306l0,1.6202c0,0.2563 0,0.4691 -0.043,0.6384c0,0.1692 -0.038,0.2998 -0.085,0.382c-0.038,0.0822 -0.167,0.1306 -0.291,0.1693c-0.085,0.0435 -0.252,0.0435 -0.461,0.0435c-0.334,0 -0.548,-0.0435 -0.677,-0.1692c-0.166,-0.1258 -0.209,-0.3434 -0.209,-0.5997l0,-2.0845c0,-0.087 -0.043,-0.1306 -0.124,-0.1306l-1.176,0c-0.085,0 -0.123,0.0436 -0.123,0.1306l0,2.1715c0,0.1693 -0.043,0.2999 -0.086,0.3869c-0.043,0.1258 -0.086,0.1693 -0.167,0.2128c-0.085,0.0871 -0.209,0.0871 -0.338,0.0871l-4.365,0c-0.081,0 -0.167,0 -0.253,-0.0436c0.172,-0.087 0.338,-0.2128 0.505,-0.3385c0.128,-0.1741 0.295,-0.3434 0.424,-0.5562c0.123,-0.1692 0.209,-0.382 0.295,-0.5948c0.081,-0.2128 0.128,-0.4692 0.128,-0.7255c0,-0.5997 -0.209,-1.064 -0.671,-1.4509c-0.424,-0.3385 -1.133,-0.5126 -2.099,-0.5126c-0.381,0 -0.715,0 -1.048,0.087c-0.338,0.0436 -0.628,0.1258 -0.881,0.2128c-0.295,0.0871 -0.504,0.1693 -0.633,0.2999c-0.166,0.1257 -0.252,0.2128 -0.252,0.2998l0,0.977c0.038,0.0435 0.081,0.1305 0.167,0.1692c0.166,0.1258 0.338,0.2564 0.504,0.3869c0.167,0.1258 0.338,0.2564 0.462,0.4256c0.124,0.1306 0.252,0.3434 0.376,0.5127c0.129,0.2128 0.21,0.4691 0.295,0.7206c-0.252,0.087 -0.462,0.087 -0.633,0.1306l-10.364,0l0,-1.4074c0,-0.5562 -0.043,-0.9818 -0.167,-1.3203c-0.123,-0.3434 -0.295,-0.6384 -0.547,-0.8512c-0.21,-0.2128 -0.505,-0.3821 -0.795,-0.5126c-0.338,-0.0871 -0.671,-0.1306 -1.048,-0.1306c-0.338,0 -0.671,0.0435 -0.966,0.1306c-0.338,0.1305 -0.59,0.2998 -0.838,0.5126c-0.252,0.2563 -0.419,0.5562 -0.547,0.8947c-0.167,0.3869 -0.253,0.8512 -0.253,1.3639c0,0.4691 0.081,0.8511 0.21,1.1897c0.085,0.3434 0.252,0.5997 0.462,0.8125c0.209,0.2128 0.461,0.3434 0.799,0.4691c0.296,0.0871 0.629,0.1257 1.048,0.1257l1.257,0c0,0.2564 -0.043,0.4692 -0.086,0.6433c-0.043,0.1692 -0.124,0.2998 -0.21,0.382c-0.085,0.0871 -0.209,0.1741 -0.333,0.2128c-0.166,0.0436 -0.338,0.0436 -0.504,0.0436l-1.514,0c-0.043,0 -0.129,0.0435 -0.129,0.1257l0,1.0205c0,0.087 0.086,0.1305 0.129,0.1305l1.723,0c0.752,0 1.343,-0.1692 1.719,-0.5513c0.419,-0.3869 0.59,-0.9382 0.59,-1.7507l0,-0.2564l10.278,0c0.253,0 0.505,-0.0387 0.843,-0.087c0.295,-0.0871 0.586,-0.1693 0.881,-0.3386c0.209,0.1742 0.504,0.2564 0.752,0.3386c0.295,0.0435 0.547,0.087 0.881,0.087l4.822,0c0.376,0 0.672,-0.087 0.924,-0.1692c0.209,-0.0822 0.376,-0.2564 0.505,-0.5127c0.209,0.4305 0.633,0.6819 1.218,0.6819l0.548,0c0.376,0 0.709,-0.087 0.923,-0.1692c0.21,-0.0822 0.377,-0.2564 0.505,-0.5127c0.124,0.2128 0.252,0.3869 0.462,0.5127c0.209,0.087 0.462,0.1692 0.752,0.1692l0.548,0c0.376,0 0.666,-0.087 0.918,-0.1692c0.21,-0.0822 0.376,-0.2564 0.505,-0.5127c0.124,0.2999 0.333,0.4691 0.543,0.5562c0.252,0.0871 0.547,0.1257 0.88,0.1257l2.686,0c0.504,0 0.88,-0.1257 1.133,-0.4256c0.209,-0.2563 0.333,-0.6383 0.333,-1.1945l0,-6.90622c0,-0.08705 -0.043,-0.12574 -0.124,-0.12574m-33.106,7.37536l-1.133,0c-0.381,0 -0.714,-0.0871 -0.924,-0.2999c-0.209,-0.1741 -0.295,-0.5562 -0.295,-1.0688c0,-0.5127 0.081,-0.8899 0.295,-1.1462c0.21,-0.2999 0.505,-0.4256 0.881,-0.4256c0.419,0 0.709,0.1306 0.881,0.3821c0.209,0.2563 0.295,0.6384 0.295,1.1075l0,1.4509zm14.601,-1.5331c-0.086,0.1692 -0.167,0.2998 -0.252,0.4256c-0.129,0.1692 -0.253,0.295 -0.381,0.382c-0.124,0.1306 -0.291,0.2563 -0.419,0.3434c-0.124,-0.5126 -0.295,-0.9382 -0.59,-1.3638c-0.253,-0.3821 -0.586,-0.6819 -0.967,-0.9383c0.086,-0.0435 0.252,-0.1257 0.505,-0.1692c0.247,-0.0871 0.543,-0.1306 0.881,-0.1306c0.38,0 0.671,0.087 0.923,0.2128c0.252,0.1257 0.381,0.382 0.381,0.7206c0,0.1692 -0.043,0.3434 -0.086,0.5126"/>
   <path id="svg_12" fill="#F4F4F4" d="m168.99749,17.48314c0,0.0822 -0.042,0.1257 -0.128,0.1257l-1.171,0c-0.086,0 -0.129,-0.0387 -0.129,-0.1209l0,-8.37645c0,-0.09189 0.043,-0.13541 0.129,-0.13541l1.171,0c0.086,0 0.128,0.03869 0.128,0.13058l0,8.37648z"/>
   <path id="svg_13" fill="#F4F4F4" d="m177.27649,15.43734c0,0.4208 -0.038,0.769 -0.114,1.0447c-0.071,0.2756 -0.19,0.4981 -0.343,0.6674c-0.152,0.1692 -0.342,0.2853 -0.58,0.3579c-0.234,0.0677 -0.51,0.1015 -0.834,0.1015l-2.927,0c-0.086,0 -0.129,-0.0435 -0.129,-0.1257l0,-1.0011c0,-0.0871 0.043,-0.1306 0.129,-0.1306l2.342,0c0.228,0 0.409,-0.0194 0.547,-0.0484c0.134,-0.029 0.238,-0.0919 0.305,-0.1693c0.071,-0.0773 0.114,-0.1837 0.138,-0.3095c0.019,-0.1257 0.033,-0.2805 0.033,-0.4691l0,-0.8463c0,-0.7448 -0.428,-1.1172 -1.285,-1.1172l-1.519,0c-0.081,0 -0.123,-0.0387 -0.123,-0.1258l0,-1.0156c0,-0.0822 0.042,-0.1257 0.123,-0.1257l2.019,0c0.671,0 1.209,0.1838 1.609,0.5513c0.4,0.3676 0.6,0.9431 0.6,1.7169l0,1.0543l0.009,-0.0097z"/>
   <path id="svg_14" fill="#F4F4F4" d="m205.39849,9.74512l-1.052,0c-0.086,0 -0.128,0 -0.128,0.08705l0,1.10747c0,0.0871 0.042,0.1306 0.128,0.1306l1.052,0c0.081,0 0.124,-0.0435 0.124,-0.1306l0,-1.10747c0,-0.08705 -0.043,-0.08705 -0.124,-0.08705zm-1.637,0l-1.048,0c-0.086,0 -0.128,0 -0.128,0.08705l0,1.10747c0,0.0871 0.042,0.1306 0.128,0.1306l1.048,0c0.085,0 0.123,-0.0435 0.123,-0.1306l0,-1.10747c0,-0.08705 -0.043,-0.08705 -0.123,-0.08705z"/>
   <path id="svg_15" fill="#F4F4F4" d="m204.76549,12.47274l0,3.5401c0,0.5562 -0.129,0.9383 -0.338,1.1946c-0.252,0.2563 -0.628,0.3869 -1.133,0.3869l-4.404,0c-0.376,0 -0.671,-0.0435 -0.923,-0.1306c-0.296,-0.0822 -0.462,-0.2998 -0.629,-0.5997c-0.166,0.2999 -0.381,0.4691 -0.671,0.5997c-0.252,0.0871 -0.629,0.1306 -1.005,0.1306l-15.482,0c-0.547,0 -0.923,-0.1306 -1.133,-0.3869c-0.252,-0.2563 -0.38,-0.6384 -0.38,-1.1946l0,-6.90618c0,-0.08706 0.042,-0.13058 0.128,-0.13058l1.176,0c0.086,0 0.128,0.04352 0.128,0.13058l0,6.56278c0,0.2564 0.086,0.4305 0.167,0.5562c0.086,0.0871 0.252,0.1306 0.462,0.1306l14.392,0c0.128,0 0.266,-0.0145 0.4,-0.029c0.128,-0.0145 0.261,-0.0484 0.371,-0.1306c0.124,-0.0967 0.195,-0.2466 0.233,-0.4014c0.024,-0.1161 0.029,-0.237 0.029,-0.3531c0,-0.1064 0.014,-0.2031 0.009,-0.3046c-0.009,-0.208 -0.043,-0.4111 -0.081,-0.6094c-0.043,-0.2128 -0.123,-0.4256 -0.252,-0.5949c-0.129,-0.1741 -0.295,-0.295 -0.462,-0.3869c-0.209,-0.1257 -0.419,-0.1692 -0.714,-0.1692c-0.295,0 -0.547,0.087 -0.752,0.1692c-0.252,0.1306 -0.419,0.2563 -0.633,0.4691c-0.043,0.0436 -0.086,0.0436 -0.167,0l-0.671,-0.6819c-0.043,-0.087 -0.043,-0.1306 0,-0.1741c0.252,-0.295 0.585,-0.5513 0.923,-0.7641c0.381,-0.1693 0.795,-0.2999 1.343,-0.2999c0.547,0 1.004,0.1306 1.385,0.2999c0.381,0.1693 0.714,0.3821 0.924,0.6771c0.209,0.2998 0.376,0.6432 0.505,1.0253c0.085,0.382 0.123,0.7641 0.123,1.1945l0,0.3386c0,0.2128 0.129,0.3869 0.296,0.5126c0.166,0.1306 0.418,0.2128 0.752,0.2128l4.027,0c0.21,0 0.381,-0.0435 0.462,-0.1741c0.124,-0.0822 0.167,-0.2563 0.167,-0.5127l0,-3.1967c0,-0.0823 0.043,-0.1258 0.128,-0.1258l1.171,0c0.086,0 0.129,0.0435 0.129,0.1258z"/>
   <path id="svg_16" fill="#F4F4F4" d="m209.84049,16.34654l1.314,0c0.209,0 0.362,-0.0483 0.462,-0.1451c0.1,-0.0918 0.147,-0.2708 0.147,-0.5223l0,-6.57732c0,-0.08705 0.043,-0.12574 0.124,-0.12574l1.176,0c0.081,0 0.124,0.04352 0.124,0.12574l0,6.90142c0,0.5513 -0.11,0.9527 -0.343,1.209c-0.224,0.2612 -0.6,0.3918 -1.133,0.3918l-5.537,0c-0.085,0 -0.128,-0.0436 -0.128,-0.1258l0,-1.0011c0,-0.087 0.038,-0.1306 0.128,-0.1306l2.243,0l0,-5.4553c0,-0.0822 0.042,-0.1257 0.123,-0.1257l1.176,0c0.081,0 0.129,0.0435 0.129,0.1257l0,5.4553l-0.005,0z"/>
   <path id="svg_17" fill="#F4F4F4" d="m214.86349,8.97608l1.175,0c0.072,0 0.129,0.05803 0.129,0.13058l0,8.37158c0,0.0726 -0.057,0.1306 -0.129,0.1306l-1.171,0c-0.071,0 -0.128,-0.058 -0.128,-0.1306l0,-8.37642c0,-0.07255 0.057,-0.12574 0.124,-0.12574z"/>
   <path id="svg_18" fill="#F4F4F4" d="m76.15829,22.60474l-1.2187,0c-0.0857,0 -0.1286,0.0435 -0.1286,0.1306l0,1.1075c0,0.087 0.0429,0.1306 0.1286,0.1306l1.2187,0c0.0857,0 0.1286,-0.0436 0.1286,-0.1306l0,-1.1075c0,-0.0871 -0.0429,-0.1306 -0.1286,-0.1306z"/>
   <path id="svg_19" fill="#F4F4F4" d="m86.18459,22.60474l-1.2188,0c-0.0857,0 -0.1285,0.0435 -0.1285,0.1306l0,1.1075c0,0.087 0.0428,0.1306 0.1285,0.1306l1.2188,0c0.0857,0 0.1238,-0.0436 0.1238,-0.1306l0,-1.1075c0,-0.0871 -0.0429,-0.1306 -0.1238,-0.1306z"/>
   <path id="svg_20" fill="#F4F4F4" d="m86.27019,25.33224l0,3.5402c0,0.5561 -0.0857,0.9769 -0.338,1.238c-0.2095,0.2564 -0.5856,0.3821 -1.1331,0.3821l-0.2951,0c-0.2667,0 -6.7222,0.0145 -6.9841,0c-0.2475,-0.0145 -0.5094,-0.029 -0.7522,-0.087c-0.2047,-0.0484 -0.3761,-0.1887 -0.5237,-0.3386l0,0.2563c0,0.4305 -0.0428,0.8512 -0.0857,1.1946c-0.0856,0.3434 -0.2094,0.6384 -0.3761,0.8512c-0.1713,0.2128 -0.4237,0.3821 -0.7141,0.5126c-0.2523,0.1258 -0.6284,0.1693 -1.0473,0.1693l-0.4618,0c-0.0857,0 -0.1238,-0.0435 -0.1238,-0.1306l0,-1.0204c0,-0.0822 0.0428,-0.1258 0.1238,-0.1258l0.2951,0c0.2095,0 0.419,-0.0435 0.5475,-0.1306c0.1238,-0.087 0.2523,-0.2127 0.2904,-0.3433c0.0857,-0.1693 0.1286,-0.3869 0.1286,-0.6433l0,-5.3295c0,-0.0823 0.0428,-0.1258 0.1238,-0.1258l1.1759,0c0.0857,0 0.1237,0.0435 0.1237,0.1258l0,3.1097c0,0.2563 0.1286,0.4304 0.2952,0.5997c0.2095,0.1306 0.4618,0.1741 0.7522,0.1741l6.965,0c0.2095,0 0.3761,-0.0435 0.4618,-0.1306c0.0857,-0.087 0.1285,-0.2563 0.1285,-0.5126l0,-3.2403c0,-0.0823 0.0429,-0.1258 0.1238,-0.1258l1.1759,0c0.0809,0 0.1238,0.0435 0.1238,0.1258"/>
   <path id="svg_21" fill="#F4F4F4" d="m89.96939,30.48304c-0.3999,0 -0.7522,-0.0435 -1.0569,-0.1306c-0.3047,-0.087 -0.5665,-0.237 -0.776,-0.4498c-0.2047,-0.2031 -0.3714,-0.4739 -0.4808,-0.8028c-0.1143,-0.3337 -0.1714,-0.7351 -0.1714,-1.2187c0,-0.5175 0.0666,-0.9576 0.2094,-1.3252c0.1429,-0.3675 0.3285,-0.6674 0.5618,-0.8995c0.2428,-0.237 0.5189,-0.4014 0.8284,-0.5078c0.3142,-0.1064 0.6427,-0.1596 0.9855,-0.1596c0.3808,0 0.7236,0.0483 1.0426,0.1547c0.3142,0.1016 0.5855,0.2612 0.8141,0.4788c0.2285,0.2177 0.3999,0.5078 0.5284,0.8657c0.1285,0.3531 0.1904,0.7835 0.1904,1.301l0,2.9646c0,0.798 -0.1952,1.3784 -0.5903,1.7459c-0.3999,0.3627 -0.976,0.5465 -1.7282,0.5465l-1.7043,0c-0.0857,0 -0.1286,-0.0435 -0.1286,-0.1306l0,-1.0156c0,-0.0822 0.0429,-0.1257 0.1286,-0.1257l1.4758,0c0.1666,0 0.3238,-0.0194 0.4666,-0.0484c0.1428,-0.029 0.2713,-0.087 0.3713,-0.1838c0.1,-0.0919 0.1762,-0.2224 0.2285,-0.3917c0.0572,-0.1693 0.081,-0.3917 0.081,-0.6722l-1.2712,0l-0.0047,0.0048zm0.1095,-4.2269c-0.3856,0 -0.6808,0.1451 -0.895,0.4352c-0.2095,0.2854 -0.3143,0.6675 -0.3143,1.1511c0,0.532 0.1048,0.8947 0.319,1.0881c0.2143,0.1983 0.5285,0.2951 0.9284,0.2951l1.1235,0l0,-1.4461c0,-0.4981 -0.0904,-0.8754 -0.2714,-1.1365c-0.1856,-0.2563 -0.4808,-0.3869 -0.8855,-0.3869"/>
   <path id="svg_22" fill="#F4F4F4" d="m93.49709,33.04624c-0.0857,0 -0.1286,-0.0436 -0.1286,-0.1306l0,-1.0156c0,-0.0823 0.0429,-0.1209 0.1286,-0.1209l0.2761,0c0.3523,0 0.6094,-0.0919 0.7665,-0.2709c0.1571,-0.1789 0.2333,-0.4497 0.2333,-0.8125l0,-5.3586c0,-0.0822 0.0381,-0.1257 0.1285,-0.1257l1.1712,0c0.0809,0 0.1285,0.0435 0.1285,0.1257l0,5.3876c0,1.5477 -0.7474,2.3215 -2.2328,2.3215l-0.4666,0l-0.0047,0z"/>
   <path id="svg_23" fill="#F4F4F4" d="m107.87949,21.96624l0,6.9062c0,0.5514 -0.124,0.977 -0.338,1.2381c-0.253,0.2515 -0.629,0.3821 -1.176,0.3821l-1.457,0c-0.362,0 -0.719,0.0048 -1.076,-0.0097c-0.181,-0.0048 -0.362,-0.0242 -0.543,-0.0483c-0.157,-0.0242 -0.347,-0.0387 -0.495,-0.1113c-0.252,-0.087 -0.461,-0.2563 -0.628,-0.5561c-0.129,0.2998 -0.381,0.4691 -0.629,0.5561c-0.295,0.1258 -0.633,0.1693 -1.052,0.1693l-2.8085,0c-0.0857,0 -0.1285,-0.0435 -0.1285,-0.1306l0,-1.0204c0,-0.0823 0.0428,-0.1258 0.1285,-0.1258l2.309,0c0.2525,0 0.4185,0 0.5475,-0.0435c0.167,-0.0435 0.252,-0.0871 0.333,-0.1693c0.043,-0.087 0.124,-0.1692 0.124,-0.2998c0.043,-0.1306 0.043,-0.295 0.043,-0.4691l0,-0.8512c0,-0.3821 -0.129,-0.6819 -0.338,-0.8512c-0.21,-0.1693 -0.543,-0.2563 -0.9618,-0.2563l-1.5092,0c-0.0857,0 -0.1285,-0.0436 -0.1285,-0.1306l0,-1.0205c0,-0.087 0.0428,-0.1306 0.1285,-0.1306l1.928,0c0.714,0 1.262,0.1693 1.681,0.5127c0.419,0.3869 0.628,0.9382 0.628,1.7459l0,1.1946c0,0.2563 0.086,0.4304 0.252,0.5561c0.21,0.1693 0.462,0.2128 0.757,0.2128l2.347,0c0.21,0 0.381,-0.0435 0.462,-0.1306c0.129,-0.087 0.172,-0.2563 0.172,-0.5126l0,-6.6064c0,-0.087 0.042,-0.1305 0.128,-0.1305l1.176,0c0.081,0 0.124,0.0435 0.124,0.1305z"/>
   <path id="svg_24" fill="#F4F4F4" d="m110.86949,30.35244c0,0.0823 -0.043,0.1258 -0.129,0.1258l-1.171,0c-0.086,0 -0.129,-0.0435 -0.129,-0.1258l0,-8.3764c0,-0.0871 0.038,-0.1306 0.124,-0.1306l1.171,0c0.086,0 0.129,0.0435 0.129,0.1306l0,8.3764l0.005,0z"/>
   <path id="svg_25" fill="#F4F4F4" d="m114.74949,30.47824c-0.4,0 -0.753,-0.0436 -1.062,-0.1306c-0.305,-0.0871 -0.567,-0.237 -0.776,-0.445c-0.21,-0.2031 -0.371,-0.4739 -0.486,-0.8028c-0.114,-0.3337 -0.171,-0.7351 -0.171,-1.2187c0,-0.5175 0.067,-0.9576 0.209,-1.33c0.138,-0.3676 0.329,-0.6626 0.562,-0.8996c0.243,-0.2321 0.514,-0.3965 0.829,-0.5078c0.309,-0.1064 0.637,-0.1547 0.985,-0.1547c0.381,0 0.724,0.0483 1.043,0.1499c0.314,0.1016 0.585,0.2612 0.814,0.4788c0.223,0.2225 0.4,0.5078 0.528,0.8657c0.129,0.353 0.186,0.7931 0.186,1.3058l0,2.9695c0,0.7979 -0.195,1.3735 -0.591,1.7362c-0.399,0.3627 -0.975,0.5465 -1.728,0.5465l-1.704,0c-0.081,0 -0.129,-0.0435 -0.129,-0.1306l0,-1.0156c0,-0.0822 0.043,-0.1209 0.129,-0.1209l1.476,0c0.166,0 0.324,-0.0194 0.466,-0.0484c0.143,-0.029 0.267,-0.0919 0.372,-0.1838c0.1,-0.0919 0.176,-0.2224 0.228,-0.3917c0.057,-0.1741 0.081,-0.3966 0.081,-0.6771l-1.271,0l0.01,0.0049zm0.109,-4.2221c-0.386,0 -0.686,0.1402 -0.895,0.4352c-0.214,0.2854 -0.319,0.6675 -0.319,1.1511c0,0.532 0.11,0.8947 0.319,1.093c0.214,0.1934 0.528,0.2902 0.924,0.2902l1.123,0l0,-1.4461c0,-0.503 -0.09,-0.8802 -0.276,-1.1365c-0.186,-0.2563 -0.481,-0.3869 -0.885,-0.3869"/>
   <path id="svg_26" fill="#F4F4F4" d="m124.95649,22.09204l-1.052,0c-0.086,0 -0.129,0.0435 -0.129,0.1306l0,1.1075c0,0.0435 0.043,0.087 0.129,0.087l1.052,0c0.081,0 0.123,-0.0435 0.123,-0.087l0,-1.1075c0,-0.0871 -0.042,-0.1306 -0.123,-0.1306zm-1.638,0l-1.09,0c-0.086,0 -0.129,0.0435 -0.129,0.1306l0.043,1.1075c0,0.0435 0.043,0.087 0.086,0.087l1.09,0c0.086,0 0.129,-0.0435 0.129,-0.087l0,-1.1075c0,-0.0871 -0.043,-0.1306 -0.129,-0.1306z"/>
   <path id="svg_27" fill="#F4F4F4" d="m130.99749,31.55664l-1.176,0c-0.086,0 -0.128,0.0435 -0.128,0.1306l0,1.064c0,0.087 0.042,0.1305 0.128,0.1305l1.176,0c0.086,0 0.124,-0.0435 0.124,-0.1305l0,-1.064c0,-0.0871 -0.043,-0.1306 -0.124,-0.1306z"/>
   <path id="svg_28" fill="#F4F4F4" d="m140.69549,26.48344c-0.129,-0.3434 -0.295,-0.6384 -0.548,-0.8512c-0.209,-0.2128 -0.504,-0.382 -0.795,-0.5126c-0.338,-0.0871 -0.671,-0.1306 -1.047,-0.1306c-0.376,0 -0.714,0.0435 -1.009,0.1306c-0.334,0.087 -0.586,0.2563 -0.838,0.4691c-0.21,0.2128 -0.419,0.5127 -0.543,0.8512c-0.167,0.4498 -0.295,1.0591 -0.176,1.6443c0.005,0.0436 0,0.0871 0,0.1354c-0.024,0.2757 -0.091,0.5369 -0.291,0.7352c-0.085,0.0822 -0.166,0.1692 -0.252,0.2128c-0.086,0.0386 -0.167,0.0386 -0.252,0.0386l-0.714,0c-0.334,0 -0.586,-0.0386 -0.753,-0.1692c-0.166,-0.1258 -0.295,-0.2999 -0.295,-0.5562l0,-0.295c0,-0.4256 -0.043,-0.856 -0.128,-1.2381c-0.124,-0.3821 -0.295,-0.7254 -0.505,-1.0205c-0.209,-0.2998 -0.547,-0.5126 -0.923,-0.6819c-0.381,-0.1741 -0.843,-0.2563 -1.386,-0.2563c-0.543,0 -0.962,0.0871 -1.342,0.2999c-0.338,0.1692 -0.672,0.4255 -0.924,0.7206c-0.043,0.0435 -0.043,0.087 0.043,0.1692l0.628,0.6868c0.086,0.0435 0.129,0.0435 0.167,0c0.209,-0.1741 0.381,-0.3434 0.633,-0.4691c0.21,-0.0871 0.462,-0.1306 0.752,-0.1306c0.291,0 0.505,0.0435 0.714,0.1306c0.167,0.087 0.338,0.2128 0.462,0.382c0.129,0.1741 0.21,0.3821 0.253,0.5997c0.042,0.2564 0.085,0.5127 0.085,0.769c0,0.2128 -0.043,0.3821 -0.043,0.5126c-0.042,0.1306 -0.085,0.2564 -0.166,0.3434c-0.086,0.0871 -0.167,0.1258 -0.295,0.1693c-0.167,0.0387 -0.338,0.0387 -0.543,0.0387l-3.99,0c-0.209,0 -0.381,-0.0387 -0.461,-0.1258c-0.086,-0.087 -0.129,-0.2998 -0.129,-0.5561l0,-4.0915c0,-0.0871 -0.043,-0.1306 -0.129,-0.1306l-1.171,0c-0.085,0 -0.123,0.0435 -0.123,0.1306l0,0.5513l-1.262,0c-0.338,0 -0.628,0.0435 -0.924,0.1306c-0.295,0.087 -0.547,0.2128 -0.799,0.4256c-0.21,0.1692 -0.419,0.4691 -0.543,0.7641c-0.129,0.3434 -0.21,0.7641 -0.21,1.2381c0,0.4256 0.086,0.8125 0.172,1.1075c0.124,0.2999 0.333,0.5127 0.542,0.7254c0.21,0.2128 0.462,0.3386 0.757,0.4256c0.296,0.0871 0.586,0.1258 0.924,0.1258c0.252,0 0.505,0 0.757,-0.0871c0.252,-0.087 0.462,-0.2128 0.628,-0.3385c0.086,0.3385 0.253,0.5949 0.462,0.7641c0.252,0.1258 0.548,0.2128 0.967,0.2128l5.075,0c0.423,0 0.757,-0.087 1.004,-0.1693c0.295,-0.087 0.505,-0.2998 0.676,-0.5996c0.167,0.2998 0.376,0.5126 0.629,0.5996c0.252,0.1258 0.547,0.1693 0.923,0.1693l0.424,0c0.124,0 0.252,-0.0435 0.376,-0.0435c0.167,0 0.295,-0.0387 0.419,-0.0871c0.128,-0.0386 0.252,-0.1257 0.381,-0.2128c0.085,-0.087 0.209,-0.1692 0.295,-0.2998c0.209,0.2563 0.505,0.4304 0.838,0.5562c0.333,0.087 0.709,0.1692 1.133,0.1692c0.376,0 0.752,-0.0435 1.047,-0.1692c0.333,-0.0871 0.586,-0.2564 0.838,-0.4692c0.21,-0.2127 0.376,-0.5126 0.505,-0.8511c0.124,-0.3434 0.209,-0.769 0.209,-1.2817c0,-0.5126 -0.085,-0.9334 -0.209,-1.3203m-16.03,0.8512c0,0.4305 -0.085,0.7642 -0.295,1.0253c-0.209,0.2128 -0.505,0.3386 -0.881,0.3386c-0.376,0 -0.633,-0.0871 -0.842,-0.2999c-0.21,-0.1693 -0.291,-0.4691 -0.291,-0.8512c0,-0.5126 0.086,-0.8512 0.291,-1.0204c0.252,-0.1693 0.547,-0.2564 0.88,-0.2564l1.134,0l0,1.064l0.004,0zm14.559,1.6202c-0.21,0.2128 -0.505,0.3434 -0.924,0.3434c-0.419,0 -0.714,-0.1306 -0.881,-0.3434c-0.209,-0.2563 -0.29,-0.6432 -0.29,-1.1511c0,-0.5078 0.081,-0.8947 0.29,-1.151c0.167,-0.2563 0.462,-0.3869 0.881,-0.3869c0.795,0 1.214,0.5127 1.214,1.5331c0,0.5127 -0.124,0.8947 -0.29,1.151"/>
   <path id="svg_29" fill="#F4F4F4" d="m148.20249,31.55664l-1.218,0c-0.086,0 -0.129,0.0435 -0.129,0.1306l0,1.064c0,0.087 0.043,0.1305 0.129,0.1305l1.218,0c0.086,0 0.129,-0.0435 0.129,-0.1305l0,-1.064c0,-0.0871 -0.043,-0.1306 -0.129,-0.1306z"/>
   <path id="svg_30" fill="#F4F4F4" d="m152.14949,21.96614l0,6.9062c0,0.5514 -0.128,0.9383 -0.338,1.1946c-0.209,0.295 -0.586,0.4256 -1.133,0.4256l-1.219,0c-0.252,0 -0.542,-0.0435 -0.752,-0.1306c-0.252,-0.0822 -0.419,-0.2515 -0.586,-0.5513c-0.128,0.2563 -0.295,0.4256 -0.504,0.5126c-0.252,0.0871 -0.548,0.1693 -0.967,0.1693l-1.047,0c-0.295,0 -0.547,-0.0435 -0.757,-0.087c-0.209,-0.0436 -0.376,-0.1693 -0.505,-0.3434l0,0.2128c0,0.4691 -0.042,0.8512 -0.128,1.1945c-0.086,0.3821 -0.21,0.6384 -0.376,0.8947c-0.167,0.2128 -0.419,0.3869 -0.671,0.5127c-0.296,0.087 -0.672,0.1741 -1.091,0.1741l-0.461,0c-0.081,0 -0.124,-0.0435 -0.124,-0.1306l0,-1.0204c0,-0.0823 0.043,-0.1306 0.124,-0.1306l0.295,0c0.252,0 0.419,-0.0387 0.542,-0.1258c0.167,-0.087 0.253,-0.2128 0.338,-0.3869c0.043,-0.1692 0.086,-0.3433 0.086,-0.5997c0,-0.2128 0.043,-0.5126 0.043,-0.8076l0,-4.5171c0,-0.0822 0.043,-0.1258 0.129,-0.1258l1.175,0c0.086,0 0.129,0.0436 0.129,0.1258l0,3.1097c0,0.2563 0.086,0.4305 0.252,0.5562c0.21,0.1693 0.462,0.2128 0.795,0.2128l0.881,0c0.129,0 0.252,0 0.338,-0.0435c0.086,-0.0436 0.171,-0.1306 0.171,-0.2128c0.043,-0.0871 0.081,-0.2128 0.081,-0.3869l0,-3.2403c0,-0.0823 0.043,-0.1258 0.129,-0.1258l1.176,0c0.086,0 0.128,0.0435 0.128,0.1258l0,3.1097c0,0.2563 0.124,0.4304 0.296,0.5562c0.209,0.1692 0.461,0.2128 0.757,0.2128l0.795,0c0.209,0 0.338,-0.0436 0.461,-0.1306c0.086,-0.1258 0.129,-0.2999 0.129,-0.5562l0,-6.5628c0,-0.0871 0.043,-0.1306 0.124,-0.1306l1.176,0c0.085,0 0.128,0.0435 0.128,0.1306"/>
   <path id="svg_31" fill="#F4F4F4" d="m155.15349,30.34764c0,0.0822 -0.043,0.1257 -0.128,0.1257l-1.172,0c-0.085,0 -0.128,-0.0387 -0.128,-0.1257l0,-8.3765c0,-0.0919 0.038,-0.1306 0.124,-0.1306l1.171,0c0.085,0 0.128,0.0387 0.128,0.1306l0,8.3765l0.005,0z"/>
   <path id="svg_32" fill="#F4F4F4" d="m159.03349,30.46844c-0.4,0 -0.752,-0.0435 -1.057,-0.1306c-0.309,-0.0822 -0.566,-0.237 -0.776,-0.4449c-0.209,-0.2032 -0.371,-0.474 -0.481,-0.8029c-0.119,-0.3337 -0.171,-0.7351 -0.171,-1.2187c0,-0.5175 0.067,-0.9576 0.209,-1.33c0.139,-0.3675 0.329,-0.6625 0.562,-0.8995c0.243,-0.2322 0.519,-0.3966 0.829,-0.503c0.309,-0.1064 0.638,-0.1596 0.985,-0.1596c0.381,0 0.724,0.0484 1.043,0.1548c0.314,0.1015 0.585,0.2611 0.814,0.4788c0.224,0.2224 0.4,0.5078 0.528,0.8657c0.129,0.353 0.191,0.7931 0.191,1.3058l0,2.9694c0,0.7932 -0.196,1.3735 -0.591,1.7363c-0.395,0.3627 -0.976,0.5465 -1.728,0.5465l-1.704,0c-0.086,0 -0.129,-0.0436 -0.129,-0.1306l0,-1.0156c0,-0.0823 0.043,-0.1258 0.129,-0.1258l1.476,0c0.166,0 0.323,-0.0193 0.466,-0.0484c0.143,-0.029 0.267,-0.0918 0.372,-0.1837c0.099,-0.0919 0.176,-0.2225 0.228,-0.3918c0.057,-0.1741 0.081,-0.3917 0.081,-0.677l-1.271,0l-0.005,0.0048zm0.11,-4.2221c-0.386,0 -0.686,0.1451 -0.895,0.4353c-0.215,0.2853 -0.315,0.6674 -0.315,1.151c0,0.532 0.105,0.8996 0.319,1.093c0.215,0.1935 0.524,0.295 0.924,0.295l1.123,0l0,-1.446c0,-0.4982 -0.09,-0.8754 -0.276,-1.1365c-0.185,-0.2564 -0.481,-0.3869 -0.885,-0.3869"/>
   <path id="svg_33" fill="#F4F4F4" d="m170.94549,33.90234l-1.053,0c-0.085,0 -0.123,0.0435 -0.123,0.1257l0,1.1076c0,0.0822 0.038,0.1257 0.123,0.1257l1.053,0c0.081,0 0.123,-0.0435 0.123,-0.1257l0,-1.1076c0,-0.0822 -0.042,-0.1257 -0.123,-0.1257zm-1.638,0l-1.047,0c-0.086,0 -0.129,0.0435 -0.129,0.1257l0,1.1076c0,0.0822 0.043,0.1257 0.129,0.1257l1.047,0c0.086,0 0.128,-0.0435 0.128,-0.1257l0,-1.1076c0,-0.0822 -0.042,-0.1257 -0.128,-0.1257z"/>
   <path id="svg_34" fill="#F4F4F4" d="m177.07249,22.60474l-1.219,0c-0.086,0 -0.129,0.0435 -0.129,0.1306l0,1.064c0,0.087 0.043,0.1305 0.129,0.1305l1.219,0c0.085,0 0.123,-0.0435 0.123,-0.1305l0,-1.064c0,-0.0871 -0.042,-0.1306 -0.123,-0.1306z"/>
   <path id="svg_35" fill="#F4F4F4" d="m177.15749,25.33234l0,3.5402c0,0.5561 -0.085,0.9382 -0.338,1.1945c-0.209,0.2563 -0.585,0.3869 -1.133,0.3869l-2.094,0c0.042,0.0871 0.085,0.2128 0.123,0.3434c0.086,0.1693 0.086,0.295 0.086,0.4691c0,0.2563 -0.043,0.4691 -0.128,0.6819c-0.086,0.2128 -0.253,0.3821 -0.419,0.5514c-0.21,0.1741 -0.462,0.295 -0.8,0.3869c-0.291,0.087 -0.672,0.1692 -1.133,0.1692l-2.895,0c-1.09,0 -1.89,-0.2611 -2.433,-0.7689c-0.542,-0.5078 -0.795,-1.1946 -0.795,-2.0845c0,-0.2128 0.038,-0.4691 0.086,-0.6819c0.043,-0.2563 0.086,-0.5126 0.167,-0.7254c0.081,-0.2128 0.166,-0.4256 0.252,-0.6384c0.086,-0.1693 0.209,-0.3821 0.338,-0.5127c0.043,-0.087 0.086,-0.087 0.167,-0.0435l1.004,0.5127c0.043,0.0435 0.043,0.1257 0,0.1692c-0.124,0.2515 -0.252,0.5127 -0.381,0.8512c-0.123,0.2999 -0.166,0.6384 -0.166,0.9382c0,0.3434 0.043,0.5949 0.166,0.8077c0.086,0.2128 0.253,0.3869 0.424,0.5127c0.209,0.1257 0.419,0.2128 0.628,0.2563c0.253,0.087 0.505,0.087 0.715,0.087l2.475,0c0.505,0 0.843,-0.0435 1.052,-0.1692c0.167,-0.1258 0.253,-0.2999 0.253,-0.5127c0,-0.1306 -0.043,-0.2563 -0.124,-0.3869c-0.086,-0.1257 -0.253,-0.2563 -0.462,-0.3385c-0.209,-0.0822 -0.462,-0.2128 -0.757,-0.3434c-0.333,-0.0871 -0.709,-0.2563 -1.133,-0.3821c-0.081,-0.0435 -0.129,-0.087 -0.081,-0.1692l0.333,-0.9818c0.043,-0.0822 0.086,-0.1257 0.167,-0.1257c0.252,0.1257 0.505,0.2079 0.752,0.3385c0.252,0.087 0.505,0.1741 0.714,0.2563c0.253,0.0822 0.462,0.1693 0.714,0.2128c0.21,0.0435 0.462,0.0871 0.71,0.0871l1.933,0c0.209,0 0.376,-0.0436 0.461,-0.1306c0.081,-0.1258 0.124,-0.2999 0.124,-0.5562l0,-3.1968c0,-0.0822 0.043,-0.1257 0.129,-0.1257l1.176,0c0.085,0 0.123,0.0435 0.123,0.1257"/>
   <path id="svg_36" fill="#F4F4F4" d="m178.68149,21.84054l1.176,0c0.071,0 0.128,0.0581 0.128,0.1306l0,8.3716c0,0.0726 -0.057,0.1306 -0.128,0.1306l-1.167,0c-0.071,0 -0.128,-0.058 -0.128,-0.1306l0,-8.3667c0,-0.0726 0.057,-0.1306 0.128,-0.1306l-0.009,-0.0049z"/>
   <path id="svg_37" fill="#F4F4F4" d="m194.38649,31.51314l-1.218,0c-0.086,0 -0.129,0.0435 -0.129,0.1693l0,1.0639c0,0.0871 0.043,0.1306 0.129,0.1306l1.218,0c0.086,0 0.129,-0.0435 0.129,-0.1306l0,-1.1075c0,-0.087 -0.043,-0.1305 -0.129,-0.1305"/>
   <path id="svg_38" fill="#F4F4F4" d="m197.49049,31.55664l-1.047,0c-0.086,0 -0.124,0.0435 -0.124,0.1306l0,1.1075c0,0.087 0.038,0.1306 0.124,0.1306l1.047,0c0.086,0 0.129,-0.0436 0.129,-0.1306l0,-1.1075c0,-0.0871 -0.038,-0.1306 -0.129,-0.1306zm1.638,0l-1.047,0c-0.086,0 -0.124,0.0435 -0.124,0.1306l0,1.1075c0,0.087 0.043,0.1306 0.124,0.1306l1.047,0c0.086,0 0.129,-0.0436 0.129,-0.1306l0,-1.1075c0,-0.0871 -0.043,-0.1306 -0.129,-0.1306z"/>
   <path id="svg_39" fill="#F4F4F4" d="m213.14449,21.96634l0,6.9062c0,0.5513 -0.086,0.9382 -0.338,1.1946c-0.21,0.2563 -0.586,0.382 -1.133,0.382l-1.176,0c-0.333,0 -0.586,-0.0387 -0.838,-0.087c-0.252,-0.0822 -0.419,-0.2515 -0.586,-0.5514c-0.128,0.2564 -0.295,0.4256 -0.504,0.5127c-0.21,0.087 -0.505,0.1257 -0.881,0.1257l-0.547,0c-0.291,0 -0.548,-0.0387 -0.753,-0.1692c-0.209,-0.0871 -0.38,-0.2564 -0.461,-0.4692c-0.124,0.2564 -0.291,0.4256 -0.543,0.5127c-0.21,0.087 -0.505,0.1257 -0.881,0.1257l-0.547,0c-0.634,0 -1.01,-0.2128 -1.262,-0.6384c-0.086,0.2128 -0.252,0.3869 -0.505,0.5127c-0.209,0.087 -0.504,0.1257 -0.88,0.1257l-1.676,0c-0.252,0 -0.462,-0.0387 -0.629,-0.087c-0.252,-0.0822 -0.461,-0.2515 -0.59,-0.5514c-0.128,0.2564 -0.295,0.4256 -0.547,0.5127c-0.253,0.087 -0.548,0.1257 -0.962,0.1257l-1.176,0c-0.333,0 -0.586,-0.0387 -0.838,-0.087c-0.252,-0.0822 -0.462,-0.2515 -0.585,-0.5514c-0.129,0.2564 -0.296,0.4256 -0.548,0.5127c-0.209,0.087 -0.543,0.1257 -0.923,0.1257l-7.999,0c-0.295,0 -0.547,0 -0.714,-0.0387c-0.209,-0.0435 -0.381,-0.1692 -0.547,-0.3433l0,0.2128c0,0.4691 -0.038,0.8511 -0.124,1.1945c-0.043,0.3821 -0.167,0.6384 -0.381,0.8947c-0.166,0.2128 -0.381,0.3869 -0.671,0.5127c-0.295,0.087 -0.633,0.1741 -1.052,0.1741l-0.462,0c-0.086,0 -0.129,-0.0435 -0.129,-0.1306l0,-1.0205c0,-0.0822 0.043,-0.1305 0.129,-0.1305l0.252,0c0.253,0 0.462,-0.0387 0.586,-0.1258c0.124,-0.087 0.209,-0.2128 0.295,-0.3869c0.043,-0.1692 0.081,-0.3434 0.124,-0.5997l0,-5.3296c0,-0.0822 0.043,-0.1257 0.124,-0.1257l1.176,0c0.085,0 0.123,0.0435 0.123,0.1257l0,3.1098c0,0.2128 0.086,0.4304 0.295,0.5561c0.167,0.1258 0.419,0.2128 0.757,0.2128l7.832,0c0.124,0 0.252,-0.0435 0.333,-0.0435c0.086,-0.0435 0.129,-0.1306 0.167,-0.2128c0.043,-0.087 0.085,-0.2128 0.085,-0.3869l0,-3.2403c0,-0.0822 0.043,-0.1257 0.129,-0.1257l1.171,0c0.086,0 0.129,0.0435 0.129,0.1257l0,3.071c0,0.2515 0.085,0.4692 0.295,0.5949c0.166,0.1258 0.419,0.2128 0.757,0.2128l1.047,0c0.129,0 0.253,-0.0435 0.338,-0.087c0.081,-0.0387 0.124,-0.1258 0.167,-0.2128c0.043,-0.0871 0.086,-0.2128 0.086,-0.3869l0,-3.1968c0,-0.0436 0.042,-0.0822 0.08,-0.1258l1.219,0c0.081,0 0.124,0.0436 0.124,0.1258l0,3.071c0,0.2515 0.086,0.4691 0.29,0.5949c0.172,0.1257 0.424,0.2128 0.757,0.2128l1.219,0c0.167,0 0.295,-0.0436 0.376,-0.0871c0.043,-0.0387 0.129,-0.1257 0.167,-0.2128c0.043,-0.087 0.043,-0.2128 0.043,-0.3869l0,-2.215c0,-0.0871 0.038,-0.1306 0.123,-0.1306l1.176,0c0.086,0 0.129,0.0435 0.129,0.1306l0,2.0941c0,0.295 0.086,0.4691 0.209,0.5949c0.172,0.1257 0.376,0.2128 0.672,0.2128c0.209,0 0.376,0 0.504,-0.0436c0.124,-0.0435 0.21,-0.087 0.253,-0.1692c0.085,-0.1258 0.123,-0.2564 0.123,-0.3869l0,-2.3021c0,-0.0871 0.043,-0.1306 0.129,-0.1306l1.176,0c0.086,0 0.128,0.0435 0.128,0.1306l0,2.128c0,0.2563 0.086,0.4691 0.253,0.5997c0.166,0.0822 0.376,0.1741 0.633,0.1741c0.209,0 0.376,0 0.462,-0.0436c0.123,-0.0435 0.209,-0.087 0.295,-0.1692c0.043,-0.0871 0.086,-0.2128 0.124,-0.3869l0,-3.2839c0,-0.0822 0.038,-0.1257 0.128,-0.1257l1.176,0c0.081,0 0.129,0.0435 0.129,0.1257l0,3.0711c0,0.2515 0.085,0.4691 0.29,0.5948c0.167,0.1258 0.462,0.2128 0.757,0.2128l0.838,0c0.209,0 0.376,-0.0435 0.462,-0.1741c0.085,-0.0822 0.123,-0.2563 0.123,-0.5126l0,-6.5629c0,-0.087 0.043,-0.1305 0.129,-0.1305l1.176,0c0.086,0 0.128,0.0435 0.128,0.1305"/>
   <path id="svg_40" fill="#F4F4F4" d="m216.16249,30.33784c0,0.0822 -0.043,0.1257 -0.128,0.1257l-1.171,0c-0.086,0 -0.129,-0.0435 -0.129,-0.1257l0,-8.3764c0,-0.0871 0.038,-0.1306 0.124,-0.1306l1.171,0c0.086,0 0.128,0.0435 0.128,0.1306l0,8.3764l0.005,0z"/>
   <path id="svg_41" fill="#F4F4F4" d="m75.61089,44.91924c-0.2143,0 -0.4285,-0.0242 -0.6332,-0.0629c-0.2047,-0.0435 -0.4047,-0.0967 -0.5903,-0.1692c-0.1857,-0.0726 -0.3571,-0.1548 -0.519,-0.2563c-0.1523,-0.1016 -0.2904,-0.2032 -0.4046,-0.3192c-0.0476,-0.0484 -0.0476,-0.0919 -0.0143,-0.1355l0.5332,-0.6432c0.0381,-0.0532 0.0809,-0.0532 0.119,-0.0145c0.0952,0.0774 0.1952,0.1548 0.3142,0.2321c0.119,0.0823 0.2476,0.15 0.3809,0.208c0.1333,0.0629 0.2761,0.1112 0.4237,0.1499c0.1523,0.0387 0.3047,0.0581 0.4761,0.0581c0.3475,0 0.6189,-0.0822 0.8093,-0.2515c0.1904,-0.1645 0.2904,-0.3724 0.2904,-0.6336c0,-0.2224 -0.0809,-0.4014 -0.2333,-0.5416c-0.1571,-0.1403 -0.4332,-0.2418 -0.8379,-0.2999l-0.3047,-0.0435c-0.5665,-0.0871 -0.9997,-0.2757 -1.3044,-0.5562c-0.2999,-0.2853 -0.4523,-0.6771 -0.4523,-1.1897c0,-0.2757 0.0476,-0.5272 0.1333,-0.7593c0.0905,-0.2273 0.2238,-0.4159 0.3952,-0.5804c0.1713,-0.1596 0.3808,-0.2853 0.6236,-0.3724c0.2428,-0.087 0.5142,-0.1305 0.8189,-0.1305c0.3665,0 0.7188,0.058 1.0426,0.1692c0.3332,0.1064 0.6094,0.2564 0.8474,0.4401c0.0428,0.0387 0.0428,0.0774 0.019,0.1258l-0.4094,0.6626c-0.0333,0.0483 -0.0714,0.0628 -0.1238,0.029c-0.2428,-0.1596 -0.4713,-0.2854 -0.6903,-0.3627c-0.2285,-0.0774 -0.4618,-0.1161 -0.7046,-0.1161c-0.2999,0 -0.5284,0.0725 -0.6855,0.2273c-0.1571,0.1547 -0.2333,0.3482 -0.2333,0.5852c0,0.2079 0.0809,0.3869 0.238,0.5271c0.1619,0.1403 0.438,0.237 0.8379,0.2999l0.3047,0.0435c0.5713,0.0822 0.9998,0.266 1.2997,0.5513c0.2952,0.2805 0.4475,0.6868 0.4475,1.2188c0,0.266 -0.0476,0.5223 -0.138,0.7544c-0.0953,0.2322 -0.2286,0.4353 -0.4142,0.5997c-0.1857,0.1693 -0.419,0.2999 -0.6903,0.3918c-0.2714,0.0967 -0.5904,0.1451 -0.9522,0.1451"/>
   <path id="svg_42" fill="#F4F4F4" d="m79.89079,38.80144c0.0143,-0.0581 0.0524,-0.0871 0.1095,-0.0871l0.7903,0c0.0571,0 0.0952,0.029 0.1142,0.0871l1.971,5.9292c0.0238,0.0581 0,0.0919 -0.0571,0.0919l-0.8427,0c-0.0571,0 -0.0952,-0.0338 -0.1095,-0.0919l-0.3904,-1.1848l-2.1994,0l-0.3809,1.1897c-0.0238,0.058 -0.0571,0.087 -0.1143,0.087l-0.8331,0c-0.0571,0 -0.0762,-0.029 -0.0619,-0.087l1.9995,-5.9341l0.0048,0zm1.2806,3.8013l-0.776,-2.3698l-0.0238,0l-0.7855,2.3698l1.5806,0l0.0047,0z"/>
   <path id="svg_43" fill="#F4F4F4" d="m85.24199,43.96654c0.338,0 0.6141,-0.1161 0.8283,-0.3385c0.2143,-0.2225 0.319,-0.5465 0.319,-0.9721l0,-3.8545c0,-0.0581 0.0238,-0.0871 0.0857,-0.0871l0.8379,0c0.0571,0 0.0857,0.029 0.0857,0.0871l0,3.8738c0,0.3482 -0.0524,0.6674 -0.1619,0.9479c-0.1047,0.2757 -0.2571,0.5127 -0.4475,0.7013c-0.1904,0.1935 -0.4189,0.3385 -0.6855,0.4401c-0.2571,0.1016 -0.5475,0.1548 -0.857,0.1548c-0.3094,0 -0.5903,-0.0484 -0.8522,-0.1548c-0.2618,-0.1016 -0.4903,-0.2466 -0.6807,-0.4401c-0.1905,-0.1935 -0.3428,-0.4256 -0.4476,-0.7013c-0.1095,-0.2805 -0.1666,-0.5997 -0.1666,-0.9479l0,-3.8738c0,-0.0581 0.0286,-0.0871 0.0905,-0.0871l0.8379,0c0.0571,0 0.0857,0.029 0.0857,0.0871l0,3.8545c0,0.4256 0.1047,0.7496 0.3189,0.9721c0.2095,0.2224 0.4856,0.3385 0.8141,0.3385"/>
   <path id="svg_44" fill="#F4F4F4" d="m88.27449,38.80144c0,-0.0581 0.0239,-0.0871 0.0857,-0.0871l2.0853,0c1.0188,0 1.671,0.4498 1.9519,1.3542c0.019,0.0774 0.038,0.1596 0.0571,0.2466c0.019,0.0871 0.0286,0.1935 0.0476,0.3192c0.0143,0.1258 0.0286,0.2805 0.0286,0.4643c0.0047,0.1789 0.0047,0.4062 0.0047,0.6674c0,0.2612 0,0.4836 -0.0047,0.6723c0,0.1789 -0.0191,0.3337 -0.0286,0.4594c-0.019,0.1257 -0.0286,0.2321 -0.0476,0.3192c-0.0191,0.087 -0.0381,0.1693 -0.0571,0.2466c-0.2809,0.9044 -0.9331,1.359 -1.9519,1.359l-2.0853,0c-0.0571,0 -0.0857,-0.029 -0.0857,-0.087l0,-5.9293l0,-0.0048zm1.0141,5.0152c0,0.0338 0.019,0.0484 0.0476,0.0484l0.8665,0c0.3284,0 0.5903,-0.0581 0.7855,-0.179c0.1999,-0.1209 0.3428,-0.3192 0.4237,-0.59c0.019,-0.0435 0.0333,-0.0967 0.0428,-0.1596c0.0143,-0.0677 0.0238,-0.1451 0.0286,-0.2418c0.0048,-0.1016 0.019,-0.2225 0.0238,-0.3724c0.0048,-0.1499 0.0095,-0.3386 0.0095,-0.5562c0,-0.2176 -0.0047,-0.4062 -0.0095,-0.5562c-0.0048,-0.1499 -0.019,-0.2805 -0.0238,-0.382c-0.0048,-0.1016 -0.019,-0.179 -0.0286,-0.2418c-0.0095,-0.0629 -0.0238,-0.1113 -0.0428,-0.1548c-0.0857,-0.2757 -0.2238,-0.4691 -0.4237,-0.59c-0.1952,-0.1161 -0.4571,-0.179 -0.7855,-0.179l-0.8665,0c-0.0333,0 -0.0476,0.0194 -0.0476,0.0532l0,4.0964l0,0.0048z"/>
   <path id="svg_45" fill="#F4F4F4" d="m93.26379,38.80134c0,-0.0628 0.0286,-0.0919 0.0857,-0.0919l0.8427,0c0.0571,0 0.0856,0.0291 0.0856,0.0919l0,5.9293c0,0.058 -0.0285,0.0919 -0.0856,0.0919l-0.8427,0c-0.0571,0 -0.0857,-0.029 -0.0857,-0.0919l0,-5.9293z"/>
   <path id="svg_46" fill="#F4F4F4" d="m96.83439,38.80134c0,-0.0628 0.0285,-0.0919 0.0857,-0.0919l3.6564,0c0.057,0 0.086,0.0291 0.086,0.0919l0,0.769c0,0.0629 -0.029,0.0919 -0.086,0.0919l-2.6805,0c-0.0333,0 -0.0524,0.0193 -0.0524,0.0532l0,1.5573c0,0.0338 0.0191,0.0483 0.0524,0.0483l2.2565,0c0.057,0 0.086,0.029 0.086,0.0919l0,0.7738c0,0.0581 -0.029,0.0919 -0.086,0.0919l-2.2565,0c-0.0333,0 -0.0524,0.0194 -0.0524,0.0484l0,2.3988c0,0.058 -0.0238,0.0919 -0.0857,0.0919l-0.8426,0c-0.0571,0 -0.0857,-0.0291 -0.0857,-0.0919l0,-5.9293l0.0048,0.0048z"/>
   <path id="svg_47" fill="#F4F4F4" d="m101.27149,38.80134c0,-0.0628 0.028,-0.0919 0.086,-0.0919l3.656,0c0.057,0 0.086,0.0291 0.086,0.0871l0,0.769c0,0.0628 -0.029,0.0967 -0.086,0.0967l-2.68,0c-0.034,0 -0.053,0.0193 -0.053,0.0532l0,1.4896c0,0.0386 0.019,0.0532 0.053,0.0532l2.256,0c0.057,0 0.086,0.029 0.086,0.087l0,0.7738c0,0.0629 -0.029,0.0871 -0.086,0.0871l-2.256,0c-0.034,0 -0.053,0.0193 -0.053,0.058l0,1.5476c0,0.029 0.019,0.0484 0.053,0.0484l2.68,0c0.057,0 0.086,0.029 0.086,0.087l0,0.7738c0,0.0629 -0.029,0.0919 -0.086,0.0919l-3.656,0c-0.058,0 -0.086,-0.029 -0.086,-0.087l0,-5.9293l0,0.0048z"/>
   <path id="svg_48" fill="#F4F4F4" d="m105.78949,38.79654c0,-0.058 0.028,-0.0871 0.086,-0.0871l2.085,0c1.019,0 1.671,0.4546 1.952,1.3542c0.019,0.0774 0.038,0.1596 0.057,0.2515c0.024,0.087 0.028,0.1934 0.047,0.3192c0.015,0.1257 0.029,0.2805 0.029,0.4594c0.009,0.1838 0.009,0.4063 0.009,0.6674c0,0.2612 0,0.4885 -0.009,0.6723c0,0.1838 -0.014,0.3337 -0.029,0.4594c-0.019,0.1258 -0.023,0.2322 -0.047,0.3192c-0.019,0.0871 -0.038,0.1693 -0.057,0.2515c-0.281,0.9044 -0.933,1.3542 -1.952,1.3542l-2.085,0c-0.058,0 -0.086,-0.0291 -0.086,-0.0871l0,-5.9293l0,-0.0048zm1.014,5.0104c0,0.0387 0.019,0.0483 0.047,0.0483l0.867,0c0.324,0 0.59,-0.058 0.785,-0.1789c0.2,-0.1209 0.338,-0.3144 0.424,-0.59c0.019,-0.0436 0.029,-0.0968 0.043,-0.1548c0.014,-0.0629 0.024,-0.1451 0.029,-0.2418c0.004,-0.1016 0.019,-0.2225 0.023,-0.3724c0.005,-0.1499 0.01,-0.3385 0.01,-0.5562c0,-0.2176 -0.005,-0.4062 -0.01,-0.5561c-0.004,-0.15 -0.019,-0.2805 -0.023,-0.3773c-0.005,-0.1015 -0.019,-0.1838 -0.029,-0.2418c-0.014,-0.0629 -0.024,-0.1112 -0.043,-0.1548c-0.086,-0.2708 -0.224,-0.4691 -0.424,-0.59c-0.195,-0.116 -0.461,-0.1789 -0.785,-0.1789l-0.867,0c-0.033,0 -0.047,0.0193 -0.047,0.0532l0,4.0963l0,-0.0048z"/>
   <path id="svg_49" fill="#F4F4F4" d="m110.77849,38.79644c0,-0.058 0.029,-0.0918 0.086,-0.0918l3.656,0c0.057,0 0.086,0.029 0.086,0.0918l0,0.769c0,0.0629 -0.029,0.0919 -0.086,0.0919l-2.68,0c-0.034,0 -0.053,0.0193 -0.053,0.0532l0,1.4896c0,0.0387 0.019,0.058 0.053,0.058l2.256,0c0.057,0 0.086,0.029 0.086,0.0919l0,0.7738c0,0.0629 -0.029,0.0871 -0.086,0.0871l-2.256,0c-0.034,0 -0.053,0.0193 -0.053,0.058l0,1.5476c0,0.0339 0.019,0.0484 0.053,0.0484l2.68,0c0.057,0 0.086,0.029 0.086,0.0919l0,0.7738c0,0.0628 -0.029,0.0918 -0.086,0.0918l-3.656,0c-0.057,0 -0.086,-0.029 -0.086,-0.0918l0,-5.9293l0,-0.0049z"/>
   <path id="svg_50" fill="#F4F4F4" d="m118.60549,44.81294c-0.067,0 -0.105,-0.0242 -0.129,-0.0871l-1.114,-2.3794l-1.004,0c-0.034,0 -0.048,0.0193 -0.048,0.058l0,2.3262c0,0.0629 -0.024,0.0919 -0.086,0.0919l-0.842,0c-0.057,0 -0.086,-0.029 -0.086,-0.0919l0,-5.9244c0,-0.0629 0.029,-0.0919 0.086,-0.0919l2.256,0c0.267,0 0.514,0.0435 0.743,0.1354c0.224,0.0871 0.419,0.2128 0.59,0.3724c0.167,0.1596 0.295,0.3482 0.391,0.5755c0.095,0.2225 0.143,0.4692 0.143,0.7352c0,0.4062 -0.1,0.7496 -0.3,1.0398c-0.2,0.295 -0.472,0.5078 -0.81,0.6383l1.229,2.4859c0.019,0.029 0.019,0.058 0,0.0822c-0.015,0.0194 -0.039,0.0339 -0.067,0.0339l-0.947,0l-0.005,0zm-1.005,-3.4241c0.272,0 0.486,-0.0726 0.648,-0.2322c0.157,-0.1547 0.242,-0.3627 0.242,-0.6287c0,-0.266 -0.085,-0.4788 -0.242,-0.6335c-0.162,-0.1548 -0.381,-0.2322 -0.648,-0.2322l-1.247,0c-0.033,0 -0.048,0.0194 -0.048,0.0581l0,1.625c0,0.0386 0.019,0.0531 0.048,0.0531l1.247,0l0,-0.0096z"/>
   <path id="svg_51" fill="#F4F4F4" d="m121.73749,38.79654c0.015,-0.058 0.053,-0.0871 0.11,-0.0871l0.79,0c0.057,0 0.095,0.0291 0.114,0.0871l1.971,5.9293c0.024,0.058 0,0.087 -0.057,0.087l-0.842,0c-0.058,0 -0.096,-0.029 -0.11,-0.087l-0.39,-1.1849l-2.2,0l-0.381,1.1849c-0.019,0.058 -0.057,0.087 -0.114,0.087l-0.833,0c-0.057,0 -0.076,-0.029 -0.062,-0.087l2,-5.9293l0.004,0zm1.281,3.8013l-0.776,-2.3746l-0.024,0l-0.785,2.3746l1.58,0l0.005,0z"/>
   <path id="svg_52" fill="#F4F4F4" d="m125.92749,44.81304c-0.057,0 -0.086,-0.029 -0.086,-0.0871l0,-5.0152c0,-0.0339 -0.014,-0.0532 -0.047,-0.0532l-1.533,0c-0.057,0 -0.086,-0.029 -0.086,-0.0919l0,-0.7738c0,-0.058 0.029,-0.0919 0.086,-0.0919l4.175,0c0.057,0 0.086,0.029 0.086,0.0919l0,0.7738c0,0.058 -0.029,0.0919 -0.086,0.0919l-1.528,0c-0.038,0 -0.058,0.0193 -0.058,0.0532l0,5.0152c0,0.0581 -0.028,0.0871 -0.085,0.0871l-0.843,0l0.005,0z"/>
   <path id="svg_53" fill="#F4F4F4" d="m128.97949,38.79644c0,-0.058 0.028,-0.0918 0.085,-0.0918l0.843,0c0.057,0 0.086,0.029 0.086,0.087l0,5.9293c0,0.058 -0.024,0.087 -0.086,0.087l-0.843,0c-0.057,0 -0.085,-0.029 -0.085,-0.087l0,-5.9293l0,0.0048z"/>
   <path id="svg_54" fill="#F4F4F4" d="m132.94449,44.90964c-0.504,0 -0.938,-0.1258 -1.299,-0.3724c-0.358,-0.2467 -0.615,-0.6142 -0.762,-1.1027c-0.029,-0.0967 -0.053,-0.1934 -0.072,-0.2853c-0.019,-0.0967 -0.038,-0.208 -0.047,-0.3289c-0.01,-0.1257 -0.019,-0.2756 -0.024,-0.4401c-0.005,-0.1741 -0.01,-0.3821 -0.01,-0.619c0,-0.237 0.005,-0.445 0.01,-0.6142c0.005,-0.1693 0.014,-0.3192 0.024,-0.445c0.014,-0.1257 0.028,-0.237 0.047,-0.3337c0.019,-0.0919 0.043,-0.1886 0.072,-0.2853c0.147,-0.4885 0.404,-0.8512 0.762,-1.1027c0.361,-0.2466 0.795,-0.3675 1.299,-0.3675c0.505,0 0.943,0.1257 1.305,0.3675c0.361,0.2515 0.614,0.6142 0.766,1.1027c0.024,0.0919 0.048,0.1886 0.067,0.2853c0.019,0.0967 0.038,0.208 0.047,0.3337c0.015,0.1258 0.019,0.2757 0.024,0.445c0.01,0.1692 0.01,0.3772 0.01,0.6142c0,0.2369 0,0.4449 -0.01,0.619c-0.005,0.1693 -0.014,0.3144 -0.024,0.4401c-0.014,0.1258 -0.028,0.237 -0.047,0.3289c-0.024,0.0919 -0.043,0.1934 -0.067,0.2853c-0.152,0.4837 -0.409,0.8512 -0.766,1.1027c-0.362,0.2515 -0.795,0.3724 -1.305,0.3724zm0,-0.9528c0.291,0 0.524,-0.0677 0.7,-0.2079c0.181,-0.1403 0.314,-0.3386 0.39,-0.59c0.015,-0.0581 0.034,-0.1161 0.043,-0.1887c0.015,-0.0725 0.019,-0.1596 0.024,-0.2708c0.01,-0.1064 0.019,-0.237 0.024,-0.3869c0.009,-0.1499 0.014,-0.3337 0.014,-0.5513c0,-0.2177 0,-0.4014 -0.014,-0.5562c-0.005,-0.1499 -0.014,-0.2805 -0.024,-0.3869c-0.005,-0.1064 -0.014,-0.1983 -0.024,-0.2708c-0.014,-0.0726 -0.028,-0.1354 -0.043,-0.1886c-0.076,-0.2515 -0.209,-0.4498 -0.39,-0.5901c-0.176,-0.1402 -0.409,-0.2128 -0.7,-0.2128c-0.29,0 -0.523,0.0726 -0.7,0.2128c-0.176,0.1403 -0.3,0.3386 -0.385,0.5901c-0.019,0.0532 -0.034,0.116 -0.043,0.1886c-0.019,0.0725 -0.029,0.1596 -0.038,0.2708c-0.005,0.1112 -0.014,0.237 -0.019,0.3869c-0.005,0.1548 -0.005,0.3385 -0.005,0.5562c0,0.2176 0,0.4014 0.005,0.5513c0.005,0.1548 0.009,0.2805 0.019,0.3869c0.005,0.1112 0.019,0.1983 0.038,0.2708c0.014,0.0726 0.028,0.1306 0.043,0.1887c0.081,0.2514 0.209,0.4497 0.385,0.59c0.177,0.1402 0.405,0.2079 0.7,0.2079z"/>
   <path id="svg_55" fill="#F4F4F4" d="m135.90549,38.79164c0,-0.058 0.029,-0.087 0.086,-0.087l0.79,0c0.062,0 0.11,0.029 0.148,0.087l2.376,4.2124l0.033,0l0,-4.2124c0,-0.058 0.028,-0.087 0.086,-0.087l0.747,0c0.057,0 0.086,0.029 0.086,0.087l0,5.9293c0,0.058 -0.029,0.087 -0.086,0.087l-0.781,0c-0.066,0 -0.114,-0.029 -0.147,-0.087l-2.39,-4.2076l-0.029,0l0,4.2076c0,0.058 -0.028,0.087 -0.09,0.087l-0.748,0c-0.057,0 -0.085,-0.029 -0.085,-0.087l0,-5.9293l0.004,0z"/>
   <path id="svg_56" fill="#F4F4F4" d="m142.81849,38.79164c0,-0.058 0.029,-0.087 0.086,-0.087l3.656,0c0.057,0 0.086,0.029 0.086,0.087l0,0.7738c0,0.0629 -0.029,0.0919 -0.086,0.0919l-2.68,0c-0.034,0 -0.053,0.0193 -0.053,0.058l0,1.5525c0,0.0338 0.019,0.0532 0.053,0.0532l2.256,0c0.057,0 0.086,0.029 0.086,0.087l0,0.7738c0,0.0581 -0.029,0.0919 -0.086,0.0919l-2.256,0c-0.034,0 -0.053,0.0194 -0.053,0.0532l0,2.3988c0,0.0581 -0.028,0.0871 -0.085,0.0871l-0.843,0c-0.057,0 -0.086,-0.029 -0.086,-0.0871l0,-5.9293l0.005,-0.0048z"/>
   <path id="svg_57" fill="#F4F4F4" d="m149.29749,44.90964c-0.504,0 -0.938,-0.1257 -1.299,-0.3724c-0.357,-0.2466 -0.614,-0.6142 -0.762,-1.0978c-0.029,-0.0967 -0.052,-0.1934 -0.071,-0.2853c-0.02,-0.0968 -0.039,-0.208 -0.048,-0.3289c-0.01,-0.1257 -0.019,-0.2757 -0.024,-0.4449c-0.005,-0.1741 -0.009,-0.3821 -0.009,-0.6142c0,-0.2322 0.004,-0.445 0.009,-0.6142c0.005,-0.1693 0.014,-0.3192 0.024,-0.445c0.014,-0.1257 0.028,-0.237 0.048,-0.3289c0.019,-0.0967 0.042,-0.1934 0.071,-0.2853c0.148,-0.4836 0.405,-0.8512 0.762,-1.1027c0.361,-0.2466 0.795,-0.3724 1.299,-0.3724c0.505,0 0.943,0.1258 1.305,0.3724c0.357,0.2515 0.614,0.6142 0.766,1.1027c0.024,0.0967 0.048,0.1886 0.067,0.2853c0.019,0.0968 0.038,0.2032 0.048,0.3289c0.014,0.1258 0.019,0.2757 0.023,0.445c0.005,0.1692 0.005,0.3723 0.005,0.6142c0,0.2418 0,0.4401 -0.005,0.6142c-0.004,0.1692 -0.014,0.3192 -0.023,0.4449c-0.015,0.1257 -0.029,0.237 -0.048,0.3289c-0.024,0.0919 -0.043,0.1934 -0.067,0.2853c-0.152,0.4836 -0.409,0.8512 -0.766,1.0978c-0.362,0.2515 -0.795,0.3724 -1.305,0.3724zm0,-0.9527c0.291,0 0.524,-0.0726 0.7,-0.2128c0.181,-0.1403 0.31,-0.3385 0.391,-0.59c0.014,-0.0581 0.028,-0.1161 0.042,-0.1886c0.015,-0.0726 0.019,-0.1645 0.024,-0.2757c0.01,-0.1064 0.019,-0.237 0.024,-0.3918c0.01,-0.1499 0.014,-0.3337 0.014,-0.5465c0,-0.2127 0,-0.4014 -0.014,-0.5561c-0.005,-0.1499 -0.014,-0.2805 -0.024,-0.3918c-0.005,-0.1064 -0.014,-0.1982 -0.024,-0.2708c-0.014,-0.0677 -0.028,-0.1354 -0.042,-0.1886c-0.081,-0.2515 -0.21,-0.4498 -0.391,-0.59c-0.176,-0.1354 -0.409,-0.2128 -0.7,-0.2128c-0.29,0 -0.523,0.0725 -0.699,0.2128c-0.177,0.1402 -0.3,0.3385 -0.386,0.59c-0.019,0.0532 -0.033,0.1161 -0.043,0.1886c-0.019,0.0726 -0.029,0.1644 -0.038,0.2708c-0.01,0.1113 -0.014,0.2419 -0.019,0.3918c-0.005,0.1547 -0.005,0.3385 -0.005,0.5561c0,0.2177 0,0.3966 0.005,0.5465c0.005,0.1548 0.005,0.2854 0.019,0.3918c0.005,0.1112 0.019,0.1983 0.038,0.2757c0.014,0.0677 0.029,0.1305 0.043,0.1886c0.081,0.2515 0.205,0.4497 0.386,0.59c0.176,0.1402 0.404,0.2128 0.699,0.2128z"/>
   <path id="svg_58" fill="#F4F4F4" d="m155.57749,44.80794c-0.067,0 -0.11,-0.029 -0.129,-0.087l-1.114,-2.3795l-1.004,0c-0.034,0 -0.048,0.0194 -0.048,0.0581l0,2.3262c0,0.0629 -0.024,0.0871 -0.086,0.0871l-0.842,0c-0.057,0 -0.086,-0.0242 -0.086,-0.0871l0,-5.9293c0,-0.0628 0.029,-0.0918 0.086,-0.0918l2.256,0c0.267,0 0.515,0.0435 0.743,0.1305c0.224,0.0919 0.419,0.2128 0.586,0.3724c0.166,0.1596 0.3,0.3482 0.39,0.5755c0.095,0.2225 0.143,0.4692 0.143,0.74c0,0.4014 -0.1,0.7496 -0.3,1.0398c-0.2,0.295 -0.471,0.5078 -0.809,0.6432l1.223,2.4859c0.019,0.029 0.024,0.058 0.005,0.0822c-0.014,0.0193 -0.038,0.029 -0.067,0.029l-0.947,0l0,0.0048zm-1.005,-3.4192c0.272,0 0.486,-0.0726 0.648,-0.2322c0.157,-0.1547 0.243,-0.3675 0.243,-0.6287c0,-0.2611 -0.086,-0.4788 -0.243,-0.6335c-0.167,-0.1596 -0.381,-0.237 -0.648,-0.237l-1.247,0c-0.033,0 -0.048,0.0193 -0.048,0.058l0,1.625c0,0.0387 0.019,0.0532 0.048,0.0532l1.247,0l0,-0.0048z"/>
   <path id="svg_59" fill="#F4F4F4" d="m158.82449,43.40544c-0.029,-0.0919 -0.053,-0.1886 -0.072,-0.2805c-0.024,-0.0919 -0.038,-0.2031 -0.047,-0.324c-0.005,-0.1209 -0.024,-0.266 -0.024,-0.4304c-0.005,-0.1645 -0.005,-0.3724 -0.005,-0.6143c0,-0.2418 0,-0.4401 0.005,-0.6093c0,-0.1693 0.019,-0.3144 0.024,-0.4353c0.014,-0.1257 0.028,-0.2321 0.047,-0.324c0.019,-0.0919 0.043,-0.1886 0.072,-0.2854c0.147,-0.5029 0.4,-0.8802 0.747,-1.1268c0.357,-0.2515 0.781,-0.3724 1.276,-0.3724c0.471,0 0.876,0.1161 1.214,0.3482c0.343,0.237 0.595,0.5562 0.762,0.9624c0.014,0.0581 0,0.0919 -0.043,0.1064l-0.729,0.3676c-0.052,0.029 -0.09,0.0145 -0.109,-0.0435c-0.1,-0.2177 -0.233,-0.4015 -0.4,-0.5562c-0.171,-0.1548 -0.4,-0.237 -0.69,-0.237c-0.291,0 -0.505,0.0725 -0.676,0.2176c-0.172,0.1451 -0.291,0.3434 -0.376,0.5949c-0.019,0.0677 -0.029,0.1306 -0.043,0.1934c-0.019,0.0629 -0.029,0.1548 -0.038,0.2564c-0.01,0.1064 -0.015,0.2321 -0.019,0.382c0,0.15 0,0.3337 0,0.5562c0,0.2225 0,0.4159 0,0.561c0.004,0.1451 0.009,0.2708 0.019,0.3772c0.004,0.1064 0.019,0.1935 0.038,0.2612c0.014,0.0677 0.024,0.1354 0.043,0.1935c0.081,0.2563 0.204,0.4497 0.376,0.5948c0.166,0.1451 0.39,0.2177 0.676,0.2177c0.285,0 0.519,-0.0823 0.69,-0.237c0.167,-0.1548 0.3,-0.3386 0.4,-0.5562c0.019,-0.058 0.062,-0.0725 0.109,-0.0435l0.729,0.3675c0.047,0.0194 0.062,0.0581 0.043,0.1064c-0.167,0.4063 -0.419,0.7303 -0.762,0.9625c-0.343,0.2321 -0.748,0.3482 -1.214,0.3482c-0.495,0 -0.919,-0.1258 -1.276,-0.3724c-0.347,-0.2467 -0.6,-0.6239 -0.747,-1.1269z"/>
   <path id="svg_60" fill="#F4F4F4" d="m164.63749,44.80794c-0.062,0 -0.091,-0.029 -0.091,-0.087l0,-2.4085l-1.69,-3.5208c-0.019,-0.058 0,-0.087 0.071,-0.087l0.867,0c0.057,0 0.1,0.029 0.124,0.087l1.142,2.3746l0.024,0l1.152,-2.3746c0.019,-0.058 0.062,-0.087 0.119,-0.087l0.829,0c0.071,0 0.095,0.0241 0.071,0.087l-1.69,3.5257l0,2.4084c0,0.0581 -0.029,0.0871 -0.081,0.0871l-0.843,0l-0.004,-0.0049z"/>
   <path id="svg_61" fill="#F4F4F4" d="m167.62649,38.78704c0,-0.0581 0.029,-0.0871 0.086,-0.0871l2.171,0c0.619,0 1.071,0.1499 1.376,0.4449c0.295,0.2951 0.443,0.6868 0.443,1.1753c0,0.3482 -0.067,0.6238 -0.2,0.8318c-0.134,0.208 -0.291,0.3627 -0.476,0.4643l0,0.0193c0.09,0.0339 0.185,0.0919 0.271,0.1693c0.095,0.0774 0.176,0.1741 0.252,0.295c0.072,0.1161 0.134,0.2515 0.186,0.4063c0.047,0.1499 0.071,0.324 0.071,0.5078c0,0.6093 -0.171,1.0591 -0.519,1.3541c-0.352,0.295 -0.847,0.4401 -1.49,0.4401l-2.085,0c-0.057,0 -0.086,-0.0241 -0.086,-0.087l0,-5.9293l0,-0.0048zm2.233,2.452c0.257,0 0.462,-0.0726 0.61,-0.2177c0.147,-0.1499 0.219,-0.3434 0.219,-0.5852c0,-0.2418 -0.072,-0.4401 -0.219,-0.59c-0.148,-0.1451 -0.353,-0.2176 -0.61,-0.2176l-1.166,0c-0.034,0 -0.048,0.0193 -0.048,0.0532l0,1.4992c0,0.0387 0.019,0.0532 0.048,0.0532l1.166,0l0,0.0049zm-1.219,2.5777c0,0.0387 0.019,0.0532 0.048,0.0532l1.219,0c0.285,0 0.504,-0.0774 0.657,-0.2321c0.152,-0.1596 0.228,-0.3676 0.228,-0.6239c0,-0.2563 -0.076,-0.4546 -0.228,-0.6094c-0.153,-0.1596 -0.372,-0.237 -0.657,-0.237l-1.219,0c-0.033,0 -0.048,0.0194 -0.048,0.0581l0,1.5911z"/>
   <path id="svg_62" fill="#F4F4F4" d="m172.45849,38.78704c0,-0.0581 0.029,-0.0871 0.086,-0.0871l3.656,0c0.058,0 0.086,0.029 0.086,0.0871l0,0.7738c0,0.0628 -0.028,0.0919 -0.086,0.0919l-2.68,0c-0.033,0 -0.052,0.0193 -0.052,0.058l0,1.4896c0,0.0387 0.019,0.0532 0.052,0.0532l2.257,0c0.057,0 0.085,0.029 0.085,0.0919l0,0.7689c0,0.0629 -0.028,0.0919 -0.085,0.0919l-2.257,0c-0.033,0 -0.052,0.0145 -0.052,0.0532l0,1.5476c0,0.0339 0.019,0.0532 0.052,0.0532l2.68,0c0.058,0 0.086,0.029 0.086,0.0871l0,0.7738c0,0.058 -0.028,0.087 -0.086,0.087l-3.656,0c-0.057,0 -0.086,-0.029 -0.086,-0.087l0,-5.9293l0,-0.0048z"/>
   <path id="svg_63" fill="#F4F4F4" d="m180.29049,44.80324c-0.067,0 -0.105,-0.029 -0.129,-0.0918l-1.114,-2.3795l-1.004,0c-0.033,0 -0.048,0.0194 -0.048,0.058l0,2.3263c0,0.0629 -0.024,0.087 -0.085,0.087l-0.843,0c-0.057,0 -0.086,-0.0241 -0.086,-0.087l0,-5.9293c0,-0.0629 0.029,-0.0919 0.086,-0.0919l2.256,0c0.267,0 0.515,0.0436 0.743,0.1354c0.224,0.0871 0.419,0.2128 0.591,0.3676c0.166,0.1596 0.295,0.3482 0.39,0.5755c0.095,0.2225 0.143,0.474 0.143,0.74c0,0.4062 -0.1,0.7496 -0.3,1.0398c-0.2,0.295 -0.472,0.5078 -0.81,0.6384l1.229,2.4858c0.019,0.029 0.019,0.058 0,0.0822c-0.015,0.0194 -0.038,0.0339 -0.067,0.0339l-0.947,0l-0.005,0.0096zm-1.005,-3.424c0.272,0 0.486,-0.0726 0.648,-0.2322c0.157,-0.1547 0.243,-0.3675 0.243,-0.6287c0,-0.2612 -0.086,-0.4788 -0.243,-0.6335c-0.162,-0.1548 -0.381,-0.237 -0.648,-0.237l-1.247,0c-0.033,0 -0.048,0.0193 -0.048,0.058l0,1.625c0,0.0387 0.02,0.0532 0.048,0.0532l1.247,0l0,-0.0048z"/>
   <path id="svg_64" fill="#F4F4F4" d="m183.74649,44.90004c-0.214,0 -0.428,-0.0193 -0.633,-0.0629c-0.205,-0.0435 -0.405,-0.0967 -0.59,-0.1692c-0.186,-0.0726 -0.357,-0.1548 -0.519,-0.2563c-0.157,-0.1016 -0.291,-0.2032 -0.405,-0.3192c-0.048,-0.0484 -0.048,-0.0919 -0.019,-0.1355l0.533,-0.6432c0.038,-0.0532 0.081,-0.0532 0.119,-0.0097c0.095,0.0774 0.195,0.1548 0.314,0.2322c0.119,0.0822 0.243,0.1499 0.381,0.208c0.134,0.0628 0.276,0.1112 0.424,0.1499c0.152,0.0387 0.305,0.058 0.471,0.058c0.353,0 0.619,-0.0822 0.81,-0.2466c0.19,-0.1645 0.29,-0.3724 0.29,-0.6336c0,-0.2225 -0.076,-0.4014 -0.228,-0.5417c-0.158,-0.1402 -0.434,-0.2418 -0.838,-0.2998l-0.305,-0.0435c-0.567,-0.0871 -1,-0.2709 -1.304,-0.5562c-0.3,-0.2853 -0.453,-0.6771 -0.453,-1.1897c0,-0.2757 0.048,-0.5272 0.134,-0.7593c0.09,-0.2225 0.223,-0.4159 0.395,-0.5804c0.171,-0.1596 0.381,-0.2853 0.623,-0.3724c0.243,-0.087 0.519,-0.1305 0.819,-0.1305c0.367,0 0.719,0.058 1.043,0.1692c0.333,0.1064 0.609,0.2563 0.847,0.4401c0.043,0.0387 0.048,0.0774 0.019,0.1258l-0.409,0.6625c-0.033,0.0484 -0.072,0.0581 -0.124,0.0291c-0.243,-0.1596 -0.471,-0.2806 -0.69,-0.3628c-0.229,-0.0774 -0.462,-0.116 -0.705,-0.116c-0.3,0 -0.528,0.0725 -0.685,0.2273c-0.157,0.1547 -0.238,0.3482 -0.238,0.5852c0,0.2079 0.081,0.3869 0.242,0.5271c0.162,0.1403 0.438,0.237 0.834,0.2999l0.309,0.0435c0.571,0.0822 1,0.266 1.3,0.5513c0.295,0.2854 0.447,0.6868 0.447,1.2188c0,0.266 -0.047,0.5223 -0.138,0.7544c-0.095,0.2322 -0.233,0.4353 -0.414,0.5997c-0.186,0.1693 -0.419,0.2999 -0.69,0.3918c-0.272,0.0967 -0.591,0.145 -0.953,0.145"/>
   <path id="svg_65" fill="#F4F4F4" d="m186.56949,38.78694c0,-0.0629 0.029,-0.0919 0.086,-0.0919l3.656,0c0.057,0 0.086,0.029 0.086,0.0919l0,0.769c0,0.0629 -0.029,0.0919 -0.086,0.0919l-2.68,0c-0.033,0 -0.052,0.0145 -0.052,0.0532l0,1.4896c0,0.0386 0.019,0.0531 0.052,0.0531l2.257,0c0.057,0 0.085,0.0291 0.085,0.0919l0,0.769c0,0.0629 -0.028,0.0919 -0.085,0.0919l-2.257,0c-0.033,0 -0.052,0.0193 -0.052,0.0532l0,1.5476c0,0.029 0.019,0.0484 0.052,0.0484l2.68,0c0.057,0 0.086,0.029 0.086,0.0919l0,0.7738c0,0.058 -0.029,0.0918 -0.086,0.0918l-3.656,0c-0.057,0 -0.086,-0.029 -0.086,-0.0918l0,-5.9293l0,0.0048z"/>
   <path id="svg_66" fill="#F4F4F4" d="m191.07349,43.40064c-0.029,-0.0919 -0.052,-0.1886 -0.071,-0.2805c-0.019,-0.0919 -0.039,-0.1983 -0.048,-0.3241c-0.01,-0.1209 -0.024,-0.266 -0.024,-0.4304c-0.005,-0.1644 -0.005,-0.3724 -0.005,-0.6142c0,-0.2418 0,-0.4401 0.005,-0.6094c0,-0.1644 0.014,-0.3095 0.024,-0.4352c0.014,-0.1258 0.029,-0.2322 0.048,-0.3192c0.019,-0.0967 0.042,-0.1886 0.071,-0.2854c0.148,-0.5029 0.4,-0.8802 0.747,-1.1268c0.357,-0.2515 0.781,-0.3724 1.276,-0.3724c0.472,0 0.876,0.1161 1.214,0.353c0.338,0.2322 0.595,0.5562 0.762,0.9576c0.014,0.0581 0,0.0919 -0.048,0.1113l-0.728,0.3675c-0.048,0.029 -0.09,0.0194 -0.109,-0.0483c-0.096,-0.2128 -0.229,-0.4015 -0.4,-0.5562c-0.172,-0.1548 -0.4,-0.2322 -0.691,-0.2322c-0.29,0 -0.504,0.0677 -0.676,0.2128c-0.171,0.1451 -0.29,0.3434 -0.376,0.5949c-0.019,0.0629 -0.028,0.1306 -0.043,0.1983c-0.019,0.0629 -0.028,0.1499 -0.038,0.2563c-0.009,0.1016 -0.014,0.2273 -0.019,0.3821c-0.005,0.1499 -0.005,0.3337 -0.005,0.5561c0,0.2225 0,0.416 0.005,0.5659c0.005,0.1451 0.01,0.2708 0.019,0.3724c0.005,0.1064 0.019,0.1934 0.038,0.2611c0.015,0.0677 0.029,0.1355 0.043,0.1935c0.081,0.2515 0.205,0.4498 0.376,0.5949c0.167,0.145 0.391,0.2128 0.676,0.2128c0.286,0 0.519,-0.0823 0.691,-0.2322c0.166,-0.1596 0.3,-0.3434 0.4,-0.5562c0.019,-0.0628 0.061,-0.0725 0.109,-0.0435l0.728,0.3676c0.048,0.0193 0.062,0.058 0.048,0.1112c-0.167,0.4063 -0.419,0.7303 -0.762,0.9624c-0.342,0.2322 -0.747,0.3482 -1.214,0.3482c-0.5,0 -0.923,-0.1257 -1.276,-0.3724c-0.347,-0.2514 -0.599,-0.6238 -0.747,-1.1268"/>
   <path id="svg_67" fill="#F4F4F4" d="m197.75749,43.94724c0.338,0 0.614,-0.116 0.828,-0.3385c0.215,-0.2225 0.319,-0.5465 0.319,-0.9721l0,-3.8497c0,-0.0629 0.029,-0.0919 0.086,-0.0919l0.843,0c0.057,0 0.081,0.029 0.081,0.0919l0,3.869c0,0.3483 -0.053,0.6675 -0.157,0.948c-0.11,0.2756 -0.257,0.5126 -0.448,0.7012c-0.195,0.1935 -0.424,0.3386 -0.685,0.4401c-0.262,0.1016 -0.553,0.1548 -0.862,0.1548c-0.31,0 -0.59,-0.0484 -0.852,-0.1548c-0.262,-0.1015 -0.491,-0.2466 -0.681,-0.4401c-0.191,-0.1886 -0.343,-0.4256 -0.448,-0.7012c-0.109,-0.2805 -0.161,-0.5997 -0.161,-0.948l0,-3.869c0,-0.0629 0.028,-0.0919 0.085,-0.0919l0.838,0c0.057,0 0.086,0.029 0.086,0.0919l0,3.8497c0,0.4304 0.109,0.7496 0.319,0.9721c0.214,0.2225 0.485,0.3385 0.814,0.3385"/>
   <path id="svg_68" fill="#F4F4F4" d="m204.10349,44.79844c-0.066,0 -0.105,-0.029 -0.128,-0.0919l-1.114,-2.3795l-1.005,0c-0.033,0 -0.048,0.0194 -0.048,0.0581l0,2.3214c0,0.0629 -0.028,0.0919 -0.085,0.0919l-0.843,0c-0.057,0 -0.086,-0.0242 -0.086,-0.0919l0,-5.9245c0,-0.0628 0.029,-0.0919 0.086,-0.0919l2.257,0c0.266,0 0.514,0.0484 0.742,0.1355c0.224,0.087 0.419,0.2128 0.591,0.3724c0.166,0.1596 0.295,0.3482 0.39,0.5755c0.095,0.2224 0.143,0.4691 0.143,0.7399c0,0.4014 -0.1,0.7497 -0.3,1.0398c-0.2,0.295 -0.471,0.5078 -0.809,0.6384l1.228,2.4907c0.019,0.029 0.019,0.058 0,0.0822c-0.014,0.0242 -0.038,0.0339 -0.067,0.0339l-0.947,0l-0.005,0zm-1.004,-3.4193c0.271,0 0.485,-0.0725 0.647,-0.2321c0.157,-0.1548 0.243,-0.3676 0.243,-0.6287c0,-0.2612 -0.086,-0.4837 -0.243,-0.6384c-0.162,-0.1548 -0.381,-0.2322 -0.647,-0.2322l-1.248,0c-0.033,0 -0.047,0.0194 -0.047,0.0532l0,1.625c0,0.0387 0.019,0.0532 0.047,0.0532l1.248,0z"/>
   <path id="svg_69" fill="#F4F4F4" d="m205.72749,38.78204c0,-0.058 0.028,-0.0919 0.085,-0.0919l0.843,0c0.057,0 0.086,0.0291 0.086,0.0919l0,5.9293c0,0.0629 -0.029,0.0919 -0.086,0.0919l-0.843,0c-0.057,0 -0.085,-0.029 -0.085,-0.0919l0,-5.9293z"/>
   <path id="svg_70" fill="#F4F4F4" d="m215.84349,38.78214l-1.709,3.516l0,2.4181c0,0.0436 0,0.0823 -0.086,0.0823l-0.833,0c-0.042,0 -0.081,-0.0436 -0.081,-0.0823l0,-2.4181l-1.304,-2.6696l-1.909,0c-0.043,0 -0.043,0.0387 -0.043,0.0822l0,5.0007c0,0.0435 -0.043,0.0822 -0.086,0.0822l-0.833,0c-0.085,0 -0.124,-0.0435 -0.124,-0.0822l0,-5.0007c0,-0.0435 0,-0.0822 -0.042,-0.0822l-1.5,0c-0.057,0 -0.086,-0.029 -0.086,-0.0871l0,-0.7593c0,-0.0435 0,-0.0822 0.086,-0.0822l5.089,0c0.043,0 0.086,0.0387 0.124,0.0822l1.128,2.3746l0.043,0l1.171,-2.3746c0,-0.0435 0.043,-0.0822 0.081,-0.0822l0.833,0c0.086,0 0.129,0.0387 0.086,0.0822"/>
   <path id="svg_71" fill="#F4F4F4" d="m215.18649,43.79234c0,-0.058 0.029,-0.0919 0.086,-0.0919l0.805,0c0.057,0 0.085,0.029 0.085,0.0871l0,0.9769c0,0.0483 0,0.0822 -0.009,0.1064c0,0.0242 -0.019,0.0532 -0.048,0.0822l-0.714,0.7738c-0.043,0.0435 -0.081,0.0629 -0.119,0.0629c-0.057,0 -0.086,-0.029 -0.086,-0.0919l0,-1.9103l0,0.0048z"/>
   <path id="svg_72" fill="#F4F4F4" d="m73.54469,56.22664c-0.0571,0 -0.0857,-0.0291 -0.0857,-0.0871l0,-5.9631c-0.0047,-0.0581 0.0238,-0.0871 0.081,-0.0871l2.2042,0c0.2809,0 0.5427,0.0484 0.7807,0.1403c0.2381,0.0919 0.4428,0.2224 0.6142,0.3869c0.1666,0.1644 0.2999,0.3627 0.3999,0.5997c0.0952,0.2369 0.1428,0.4933 0.1428,0.7786c0,0.2854 -0.0476,0.5513 -0.1428,0.7883c-0.0952,0.2322 -0.2285,0.4353 -0.3999,0.5997c-0.1714,0.1645 -0.3761,0.295 -0.6142,0.3869c-0.238,0.0919 -0.5046,0.1403 -0.7807,0.1403l-1.2188,0c-0.0333,0 -0.0476,0.0193 -0.0476,0.058l0,2.1763c0,0.0581 -0.0285,0.0871 -0.0857,0.0871l-0.8474,0l0,-0.0048zm2.1376,-3.2887c0.2999,0 0.5427,-0.0871 0.7189,-0.2563c0.1714,-0.1741 0.257,-0.4063 0.257,-0.6916c0,-0.2854 -0.0856,-0.5127 -0.257,-0.6868c-0.1714,-0.1741 -0.4142,-0.2611 -0.7189,-0.2611l-1.1569,0c-0.0333,0 -0.0476,0.0193 -0.0476,0.0532l0,1.7894c0,0.0387 0.0143,0.0532 0.0476,0.0532l1.1569,0z"/>
   <path id="svg_73" fill="#F4F4F4" d="m81.87119,56.22654c-0.0666,0 -0.1047,-0.029 -0.1285,-0.087l-1.1283,-2.394l-1.0093,0c-0.0333,0 -0.0476,0.0145 -0.0476,0.0532l0,2.3408c0,0.058 -0.0238,0.087 -0.0857,0.087l-0.8474,0c-0.0571,0 -0.0857,-0.029 -0.0857,-0.087l0,-5.9632c0,-0.0629 0.0238,-0.0919 0.0809,-0.0919l2.2709,0c0.2666,0 0.5189,0.0436 0.7475,0.1354c0.2237,0.0871 0.4237,0.2128 0.5903,0.3724c0.1666,0.1596 0.2999,0.3483 0.3904,0.5804c0.0904,0.2225 0.1428,0.4739 0.1428,0.7448c0,0.4062 -0.1047,0.7544 -0.3047,1.0446c-0.1999,0.2999 -0.4713,0.5127 -0.8093,0.6432l1.2378,2.5052c0.019,0.0291 0.0238,0.0581 0.0047,0.0823c-0.0142,0.0241 -0.038,0.0386 -0.0666,0.0386l-0.9569,0l0.0047,-0.0048zm-1.0188,-3.4386c0.2714,0 0.4904,-0.0774 0.6523,-0.237c0.1618,-0.1547 0.2475,-0.3675 0.2475,-0.6287c0,-0.2611 -0.0857,-0.4836 -0.2475,-0.6432c-0.1619,-0.1548 -0.3809,-0.237 -0.6523,-0.2321l-1.252,0c-0.0334,0 -0.0476,0.0193 -0.0476,0.058l0,1.6347c0,0.0386 0.0142,0.0532 0.0476,0.0532l1.252,0l0,-0.0049z"/>
   <path id="svg_74" fill="#F4F4F4" d="m85.85129,56.32324c-0.5094,0 -0.9426,-0.1258 -1.3044,-0.3724c-0.3618,-0.2515 -0.6189,-0.6191 -0.7712,-1.1075c-0.0286,-0.0919 -0.0524,-0.1935 -0.0715,-0.2902c-0.019,-0.0967 -0.038,-0.208 -0.0476,-0.3337c-0.0095,-0.1257 -0.0238,-0.2757 -0.0238,-0.4449c0,-0.1741 -0.0095,-0.3821 -0.0095,-0.6239c0,-0.2418 0.0048,-0.4449 0.0095,-0.6191c0,-0.1692 0.0143,-0.3192 0.0238,-0.4497c0.0143,-0.1258 0.0286,-0.237 0.0476,-0.3289c0.0191,-0.0967 0.0429,-0.1934 0.0715,-0.295c0.1475,-0.4885 0.4046,-0.856 0.7664,-1.1075c0.3666,-0.2467 0.7998,-0.3724 1.3045,-0.3724c0.5046,0 0.9474,0.1257 1.3139,0.3724c0.3619,0.2515 0.6189,0.619 0.7713,1.1075c0.0286,0.0967 0.0476,0.1934 0.0666,0.295c0.0191,0.0919 0.0381,0.2031 0.0524,0.3289c0.0095,0.1257 0.0191,0.2756 0.0238,0.4497c0.0048,0.1742 0.0048,0.3773 0.0048,0.6191c0,0.2418 0,0.4449 -0.0048,0.6239c-0.0047,0.1692 -0.0143,0.3192 -0.0238,0.4449c-0.0143,0.1257 -0.0333,0.237 -0.0524,0.3337c-0.019,0.0967 -0.0428,0.1935 -0.0666,0.2902c-0.1476,0.4884 -0.4047,0.8608 -0.7665,1.1075c-0.3666,0.2515 -0.7998,0.3724 -1.314,0.3724zm0,-0.9576c0.2904,0 0.5285,-0.0725 0.6999,-0.2128c0.1809,-0.1402 0.3142,-0.3385 0.3904,-0.59c0.0142,-0.0581 0.0285,-0.1161 0.0428,-0.1886c0.0143,-0.0677 0.019,-0.1596 0.0286,-0.2709c0.0095,-0.1064 0.019,-0.2369 0.019,-0.3917c0.0095,-0.1499 0.0143,-0.3385 0.0143,-0.5562c0,-0.2176 0,-0.4014 -0.0143,-0.5561c0,-0.15 -0.0143,-0.2806 -0.019,-0.3918c-0.0048,-0.1064 -0.0143,-0.1983 -0.0286,-0.2708c-0.0143,-0.0726 -0.0286,-0.1354 -0.0428,-0.1886c-0.081,-0.2515 -0.2095,-0.4498 -0.3904,-0.5901c-0.1762,-0.145 -0.4095,-0.2128 -0.7046,-0.2128c-0.2952,0 -0.5285,0.0678 -0.7046,0.2128c-0.1762,0.1355 -0.2999,0.3386 -0.3856,0.5901c-0.0143,0.0532 -0.0286,0.116 -0.0429,0.1886c-0.0143,0.0725 -0.0285,0.1644 -0.0381,0.2708c-0.0047,0.1064 -0.0142,0.237 -0.019,0.3918c-0.0048,0.1547 -0.0048,0.3433 -0.0048,0.5561c0,0.2128 0,0.4063 0.0048,0.5562c0.0048,0.1548 0.0095,0.2853 0.019,0.3917c0.0096,0.1113 0.0191,0.2032 0.0381,0.2709c0.0143,0.0725 0.0286,0.1354 0.0429,0.1886c0.0857,0.2563 0.2094,0.4498 0.3856,0.59c0.1809,0.1451 0.4142,0.2128 0.7093,0.2128z"/>
   <path id="svg_75" fill="#F4F4F4" d="m89.10289,54.84334c-0.0285,-0.0919 -0.0524,-0.1934 -0.0714,-0.2901c-0.0238,-0.0968 -0.0381,-0.208 -0.0476,-0.3337c-0.0095,-0.1258 -0.0238,-0.2757 -0.0286,-0.445c0,-0.1741 -0.0047,-0.382 -0.0047,-0.619c0,-0.237 0.0047,-0.445 0.0047,-0.6191c0.0048,-0.1741 0.0191,-0.3192 0.0286,-0.4497c0.0143,-0.1306 0.0238,-0.237 0.0476,-0.3337c0.019,-0.0968 0.0429,-0.1935 0.0714,-0.2902c0.1476,-0.4885 0.4047,-0.856 0.7665,-1.1075c0.3666,-0.2467 0.8093,-0.3724 1.3283,-0.3724c0.2761,0 0.5284,0.0338 0.7474,0.1064c0.2285,0.0725 0.4285,0.1644 0.5998,0.2853c0.1714,0.1161 0.3143,0.2563 0.4285,0.4159c0.1143,0.1596 0.2047,0.3241 0.2666,0.4933c0.0238,0.0581 0.0143,0.0919 -0.0333,0.1258l-0.7236,0.3337c-0.0572,0.0193 -0.0905,0.0048 -0.1143,-0.0435c-0.1333,-0.2515 -0.2904,-0.4353 -0.4761,-0.5659c-0.1856,-0.1306 -0.4237,-0.1983 -0.7093,-0.1983c-0.2857,0 -0.5428,0.0726 -0.7189,0.2128c-0.1809,0.1403 -0.3047,0.3386 -0.3904,0.59c-0.0143,0.0532 -0.0381,0.1161 -0.0428,0.1887c-0.0191,0.0725 -0.0286,0.1596 -0.0381,0.2708c-0.0048,0.1064 -0.0143,0.237 -0.0143,0.3917c0,0.1548 0,0.3434 0,0.5562c0,0.2128 0,0.4062 0,0.5562c0,0.1547 0.0095,0.2853 0.0143,0.3917c0.0095,0.1112 0.0238,0.1983 0.0381,0.2708c0.0095,0.0726 0.0285,0.1355 0.0428,0.1887c0.0809,0.2563 0.2095,0.4497 0.3904,0.59c0.1809,0.1451 0.4237,0.2128 0.7189,0.2128c0.2571,0 0.4856,-0.0677 0.6855,-0.1983c0.2047,-0.1306 0.3428,-0.324 0.4285,-0.5755c0.0285,-0.0968 0.0476,-0.208 0.0666,-0.3386c0.0191,-0.1305 0.0238,-0.2805 0.0238,-0.4594c0,-0.0387 -0.0142,-0.0532 -0.0523,-0.0532l-0.9665,0c-0.0571,0 -0.0857,-0.029 -0.0857,-0.0871l0,-0.7206c0,-0.0628 0.0286,-0.0919 0.0857,-0.0919l1.9424,0c0.0572,0 0.0857,0.0242 0.0857,0.0871l0,0.532c0,0.2563 -0.0095,0.503 -0.0333,0.7448c-0.0238,0.2515 -0.0571,0.4497 -0.1047,0.6045c-0.1381,0.4788 -0.3999,0.8512 -0.7618,1.1124c-0.3665,0.2611 -0.7998,0.3917 -1.3092,0.3917c-0.5094,0 -0.9664,-0.1209 -1.333,-0.3724c-0.3618,-0.2515 -0.6189,-0.619 -0.7712,-1.1075"/>
   <path id="svg_76" fill="#F4F4F4" d="m97.78649,56.22174c-0.0666,0 -0.1047,-0.029 -0.1285,-0.087l-1.1283,-2.394l-1.0093,0c-0.0333,0 -0.0476,0.0145 -0.0476,0.058l0,2.3408c0,0.058 -0.0238,0.0871 -0.0857,0.0871l-0.8474,0c-0.0571,0 -0.0857,-0.0291 -0.0857,-0.0871l0,-5.9631c0,-0.0629 0.0238,-0.0871 0.0809,-0.0871l2.2709,0c0.2714,0 0.5189,0.0435 0.7474,0.1354c0.2238,0.0871 0.4238,0.2128 0.5904,0.3773c0.1666,0.1596 0.2999,0.3482 0.3904,0.5803c0.0904,0.2225 0.1428,0.474 0.1428,0.7448c0,0.4063 -0.1047,0.7545 -0.3047,1.0446c-0.2,0.2999 -0.4713,0.5127 -0.8093,0.6433l1.2378,2.5052c0.019,0.029 0.0238,0.058 0.0047,0.0822c-0.0143,0.0193 -0.0381,0.0338 -0.0666,0.0338l-0.9569,0l0.0047,-0.0145zm-1.0188,-3.4434c0.2714,0 0.4904,-0.0726 0.6522,-0.2322c0.1619,-0.1547 0.2476,-0.3675 0.2476,-0.6287c0,-0.2611 -0.0857,-0.4884 -0.2476,-0.6432c-0.1618,-0.1596 -0.3808,-0.237 -0.6522,-0.237l-1.2521,0c-0.0333,0 -0.0476,0.0194 -0.0476,0.0581l0,1.6395c0,0.0338 0.0143,0.0483 0.0476,0.0483l1.2521,0l0,-0.0048z"/>
   <path id="svg_77" fill="#F4F4F4" d="m101.22849,50.17154c0.019,-0.0629 0.052,-0.0871 0.11,-0.0871l0.795,0c0.057,0 0.09,0.0291 0.114,0.0871l1.985,5.9631c0.024,0.0581 0,0.0871 -0.057,0.0871l-0.847,0c-0.058,0 -0.091,-0.029 -0.11,-0.0871l-0.39,-1.1945l-2.214,0l-0.381,1.1945c-0.019,0.0581 -0.057,0.0871 -0.114,0.0871l-0.8381,0c-0.0571,0 -0.0762,-0.029 -0.0619,-0.0871l2.009,-5.9631zm1.285,3.8206l-0.78,-2.3842l-0.024,0l-0.786,2.3842l1.59,0z"/>
   <path id="svg_78" fill="#F4F4F4" d="m104.94649,50.17144c0,-0.058 0.029,-0.087 0.086,-0.087l0.771,0c0.072,0 0.124,0.0242 0.148,0.087l1.614,3.7868l0.033,0l1.59,-3.7868c0.019,-0.0628 0.067,-0.0918 0.148,-0.0918l0.757,0c0.057,0 0.085,0.029 0.085,0.0918l0,5.9632c0,0.0628 -0.024,0.0919 -0.081,0.0919l-0.752,0c-0.057,0 -0.086,-0.0291 -0.086,-0.0919l0,-3.7578l-0.042,0l-1.243,2.8921c-0.033,0.0774 -0.086,0.1161 -0.157,0.1161l-0.505,0c-0.071,0 -0.128,-0.0387 -0.166,-0.1161l-1.243,-2.8921l-0.033,0l0,3.7578c0.005,0.0628 -0.024,0.0919 -0.081,0.0919l-0.752,0c-0.058,0 -0.091,-0.0291 -0.091,-0.0871l0,-5.9631l0,-0.0049z"/>
   <path id="svg_79" fill="#F4F4F4" d="m111.38749,50.17144c0,-0.0628 0.029,-0.0918 0.086,-0.0918l0.771,0c0.072,0 0.124,0.029 0.148,0.0918l1.614,3.7868l0.028,0l1.591,-3.7868c0.019,-0.0628 0.066,-0.0918 0.147,-0.0918l0.757,0c0.057,0 0.086,0.029 0.086,0.0918l0,5.9632c0.005,0.0628 -0.024,0.0919 -0.081,0.0919l-0.752,0c-0.058,0 -0.086,-0.0291 -0.086,-0.0919l0,-3.7578l-0.043,0l-1.242,2.8921c-0.034,0.0774 -0.086,0.1161 -0.158,0.1161l-0.504,0c-0.072,0 -0.124,-0.0387 -0.167,-0.1161l-1.242,-2.8921l-0.034,0l0,3.7578c0.005,0.0628 -0.024,0.0919 -0.081,0.0919l-0.752,0c-0.057,0 -0.09,-0.0291 -0.09,-0.0919l0,-5.9632l0.004,0z"/>
   <path id="svg_80" fill="#F4F4F4" d="m117.82949,50.17144c0,-0.0628 0.028,-0.0918 0.086,-0.0918l0.847,0c0.057,0 0.086,0.029 0.086,0.087l0,5.9583c0.004,0.0629 -0.024,0.0919 -0.081,0.0919l-0.848,0c-0.057,0 -0.085,-0.0242 -0.085,-0.0871l0,-5.9631l-0.005,0.0048z"/>
   <path id="svg_81" fill="#F4F4F4" d="m120.06249,50.16664c0,-0.0629 0.028,-0.0919 0.085,-0.0919l0.795,0c0.062,0 0.11,0.029 0.148,0.0919l2.395,4.2365l0.033,0l0,-4.2365c0,-0.0629 0.028,-0.0919 0.086,-0.0919l0.747,0c0.057,0 0.09,0.029 0.09,0.0919l0,5.9631c0.005,0.0629 -0.028,0.0919 -0.085,0.0919l-0.781,0c-0.067,0 -0.114,-0.029 -0.148,-0.0919l-2.404,-4.2269l-0.028,0l0,4.2269c0,0.0629 -0.029,0.0919 -0.086,0.0919l-0.752,0c-0.057,0 -0.086,-0.029 -0.086,-0.0919l0,-5.9631l-0.009,0z"/>
   <path id="svg_82" fill="#F4F4F4" d="m125.63249,54.83844c-0.029,-0.0918 -0.053,-0.1934 -0.072,-0.2853c-0.024,-0.0967 -0.038,-0.208 -0.047,-0.3337c-0.01,-0.1306 -0.024,-0.2805 -0.029,-0.4498c0,-0.1741 -0.005,-0.382 -0.005,-0.619c0,-0.237 0.005,-0.4449 0.005,-0.6191c0.005,-0.1692 0.019,-0.3192 0.029,-0.4497c0.014,-0.1258 0.023,-0.237 0.047,-0.3337c0.019,-0.0968 0.043,-0.1935 0.072,-0.2902c0.147,-0.4836 0.404,-0.856 0.766,-1.1027c0.367,-0.2515 0.81,-0.3772 1.328,-0.3772c0.277,0 0.529,0.0387 0.748,0.1064c0.228,0.0725 0.428,0.1693 0.6,0.2853c0.171,0.1161 0.314,0.2563 0.428,0.4159c0.114,0.1596 0.205,0.3241 0.267,0.4933c0.024,0.0581 0.014,0.0919 -0.034,0.1306l-0.728,0.3337c-0.052,0.0194 -0.086,0 -0.109,-0.0435c-0.134,-0.2515 -0.291,-0.4353 -0.476,-0.5658c-0.186,-0.1306 -0.424,-0.1935 -0.71,-0.1935c-0.285,0 -0.543,0.0677 -0.719,0.2128c-0.181,0.1451 -0.309,0.3434 -0.39,0.5949c-0.019,0.0532 -0.033,0.116 -0.043,0.1886c-0.019,0.0725 -0.029,0.1596 -0.038,0.2708c-0.005,0.1112 -0.014,0.2418 -0.014,0.3918c0,0.1547 0,0.3385 0,0.5561c0,0.2177 0,0.4063 0,0.5562c0,0.1548 0.009,0.2853 0.014,0.3917c0.009,0.1064 0.024,0.1983 0.038,0.2709c0.01,0.0725 0.024,0.1354 0.043,0.1886c0.081,0.2563 0.209,0.4498 0.39,0.5948c0.181,0.1403 0.424,0.2128 0.719,0.2128c0.257,0 0.486,-0.0677 0.686,-0.1934c0.204,-0.1306 0.342,-0.3192 0.428,-0.5755c0.029,-0.0919 0.048,-0.2128 0.067,-0.3386c0.019,-0.1305 0.024,-0.2805 0.024,-0.4594c0,-0.0339 -0.015,-0.0484 -0.053,-0.0484l-0.966,0c-0.057,0 -0.086,-0.029 -0.086,-0.0919l0,-0.7206c0,-0.0628 0.029,-0.087 0.086,-0.087l1.942,0c0.057,0 0.086,0.029 0.086,0.087l0,0.532c0,0.2515 -0.01,0.503 -0.033,0.7448c-0.024,0.2467 -0.058,0.4449 -0.1,0.6045c-0.138,0.4788 -0.4,0.8512 -0.767,1.1124c-0.362,0.266 -0.795,0.3917 -1.304,0.3917c-0.51,0 -0.967,-0.1257 -1.333,-0.3724c-0.362,-0.2515 -0.619,-0.619 -0.772,-1.1075"/>
   <path id="svg_83" fill="#F4F4F4" d="m132.82549,54.67414c0,-0.3241 0.081,-0.6336 0.248,-0.9286c0.162,-0.2998 0.452,-0.6142 0.866,-0.9479c-0.124,-0.1644 -0.224,-0.3047 -0.304,-0.4304c-0.086,-0.1209 -0.153,-0.237 -0.205,-0.3483c-0.048,-0.1112 -0.091,-0.2127 -0.11,-0.3095c-0.023,-0.1015 -0.038,-0.2079 -0.038,-0.3192c0,-0.2031 0.038,-0.3965 0.114,-0.561c0.072,-0.1741 0.177,-0.324 0.31,-0.4497c0.133,-0.1258 0.29,-0.2225 0.471,-0.2902c0.176,-0.0677 0.362,-0.1064 0.567,-0.1064c0.214,0 0.404,0.0387 0.59,0.1112c0.176,0.0774 0.324,0.1789 0.452,0.3047c0.124,0.1257 0.215,0.2757 0.286,0.4449c0.071,0.1693 0.105,0.3434 0.105,0.5223c0,0.1403 -0.019,0.2709 -0.048,0.3966c-0.038,0.1258 -0.095,0.2467 -0.171,0.3676c-0.086,0.1209 -0.191,0.2515 -0.314,0.382c-0.134,0.1306 -0.296,0.2757 -0.481,0.4256l0.914,1.2285l0.585,-0.7303c0.038,-0.0387 0.077,-0.0435 0.124,-0.0097l0.476,0.4256c0.048,0.0387 0.057,0.0774 0.019,0.1257l-0.685,0.8754l0.204,0.2757c0.053,0.0677 0.105,0.116 0.167,0.1499c0.057,0.029 0.124,0.0484 0.186,0.0484l0.133,0c0.057,0 0.086,0.029 0.086,0.087l0,0.7255c0,0.0628 -0.029,0.087 -0.086,0.087l-0.281,0c-0.1,0 -0.186,-0.0097 -0.262,-0.0242c-0.071,-0.0145 -0.143,-0.0387 -0.204,-0.0725c-0.067,-0.0387 -0.129,-0.0822 -0.191,-0.1451c-0.062,-0.058 -0.128,-0.1354 -0.195,-0.2321l-0.148,-0.1887c-0.247,0.2757 -0.49,0.4692 -0.723,0.5901c-0.238,0.116 -0.505,0.1789 -0.805,0.1789c-0.266,0 -0.509,-0.0435 -0.714,-0.1257c-0.205,-0.0823 -0.371,-0.1935 -0.505,-0.3434c-0.138,-0.1451 -0.238,-0.3192 -0.309,-0.5223c-0.076,-0.2032 -0.105,-0.4208 -0.105,-0.6578m0.895,-0.0532c0,0.2467 0.072,0.445 0.214,0.5997c0.143,0.15 0.343,0.2225 0.596,0.2225c0.161,0 0.314,-0.0387 0.452,-0.1161c0.138,-0.087 0.305,-0.2369 0.505,-0.4497l-1.038,-1.3881c-0.281,0.2322 -0.472,0.4353 -0.572,0.6143c-0.104,0.1789 -0.152,0.353 -0.152,0.5223m0.924,-2.3746c0.138,-0.1113 0.247,-0.2032 0.338,-0.2902c0.081,-0.0822 0.147,-0.1596 0.19,-0.2273c0.043,-0.0677 0.076,-0.1306 0.091,-0.1886c0.019,-0.0629 0.028,-0.1258 0.028,-0.1887c0,-0.1547 -0.052,-0.2756 -0.152,-0.3869c-0.105,-0.1064 -0.234,-0.1596 -0.391,-0.1596c-0.166,0 -0.3,0.0581 -0.404,0.1596c-0.105,0.1064 -0.153,0.237 -0.153,0.3918c0,0.0532 0,0.1064 0.015,0.1547c0.014,0.0484 0.033,0.1064 0.066,0.1693c0.029,0.0629 0.076,0.1354 0.134,0.2273c0.061,0.0919 0.142,0.2031 0.238,0.3386z"/>
   <path id="svg_84" fill="#F4F4F4" d="m140.37149,50.16664c0,-0.0629 0.029,-0.0919 0.086,-0.0919l2.094,0c1.024,0 1.681,0.4497 1.967,1.359c0.019,0.0773 0.042,0.1644 0.057,0.2515c0.019,0.087 0.033,0.1934 0.047,0.324c0.015,0.1209 0.024,0.2805 0.029,0.4594c0.005,0.1838 0.005,0.4063 0.005,0.6723c0,0.266 0,0.4884 -0.005,0.6722c-0.005,0.1838 -0.019,0.3386 -0.029,0.4643c-0.014,0.1257 -0.028,0.2321 -0.047,0.3192c-0.015,0.087 -0.038,0.1693 -0.057,0.2515c-0.281,0.914 -0.934,1.3638 -1.962,1.3686l-2.095,0c-0.057,0 -0.085,-0.029 -0.085,-0.087l0,-5.9631l-0.005,0zm1.019,5.0394c0,0.0387 0.019,0.0532 0.047,0.0532l0.872,0c0.323,0 0.595,-0.0581 0.79,-0.179c0.2,-0.1209 0.338,-0.3192 0.428,-0.5948c0.019,-0.0436 0.029,-0.0968 0.043,-0.1596c0.014,-0.0677 0.024,-0.1451 0.029,-0.2419c0.009,-0.1015 0.019,-0.2273 0.024,-0.3772c0,-0.1499 0.009,-0.3385 0.009,-0.561c0,-0.2225 -0.005,-0.4111 -0.009,-0.561c-0.01,-0.1499 -0.015,-0.2757 -0.024,-0.3772c-0.005,-0.1016 -0.015,-0.1838 -0.029,-0.2467c-0.014,-0.058 -0.024,-0.1112 -0.043,-0.1547c-0.09,-0.2757 -0.228,-0.474 -0.428,-0.5949c-0.195,-0.1209 -0.467,-0.1789 -0.79,-0.1789l-0.872,0c-0.033,0 -0.047,0.0193 -0.047,0.058l0,4.1157z"/>
   <path id="svg_85" fill="#F4F4F4" d="m149.02149,56.21194c-0.066,0 -0.104,-0.0291 -0.128,-0.0871l-1.129,-2.394l-1.009,0c-0.033,0 -0.047,0.0146 -0.047,0.0532l0,2.3408c0,0.0629 -0.024,0.0871 -0.086,0.0871l-0.848,0c-0.057,0 -0.085,-0.0291 -0.085,-0.0871l0,-5.9631c0,-0.0629 0.024,-0.0919 0.081,-0.0919l2.271,0c0.266,0 0.518,0.0435 0.747,0.1354c0.224,0.0919 0.424,0.2128 0.59,0.3772c0.167,0.1548 0.3,0.3482 0.391,0.5755c0.09,0.2274 0.143,0.474 0.143,0.7497c0,0.4014 -0.105,0.7544 -0.305,1.0446c-0.2,0.295 -0.471,0.5127 -0.81,0.6432l1.238,2.5052c0.019,0.029 0.024,0.0581 0.005,0.0822c-0.014,0.0242 -0.038,0.0387 -0.067,0.0387l-0.957,0l0.005,-0.0096zm-1.019,-3.4435c0.272,0 0.491,-0.0773 0.653,-0.2321c0.162,-0.1596 0.247,-0.3676 0.247,-0.6287c0,-0.2612 -0.085,-0.4885 -0.247,-0.6433c-0.162,-0.1595 -0.381,-0.2369 -0.653,-0.2369l-1.252,0c-0.033,0 -0.047,0.0193 -0.047,0.058l0,1.6347c0,0.0387 0.014,0.0532 0.047,0.0532l1.252,0l0,-0.0049z"/>
   <path id="svg_86" fill="#F4F4F4" d="m153.00149,56.31844c-0.509,0 -0.942,-0.1258 -1.304,-0.3773c-0.362,-0.2515 -0.619,-0.619 -0.771,-1.1027c-0.029,-0.0967 -0.053,-0.1934 -0.072,-0.2901c-0.019,-0.0919 -0.038,-0.208 -0.047,-0.3337c-0.01,-0.1258 -0.024,-0.2805 -0.024,-0.445c0,-0.1741 -0.01,-0.382 -0.01,-0.619c0,-0.237 0.005,-0.4498 0.01,-0.6191c0,-0.1692 0.014,-0.324 0.024,-0.4497c0.014,-0.1258 0.028,-0.2322 0.047,-0.3289c0.019,-0.0967 0.043,-0.1934 0.072,-0.2902c0.147,-0.4884 0.404,-0.856 0.766,-1.1075c0.367,-0.2515 0.8,-0.3772 1.304,-0.3772c0.505,0 0.948,0.1257 1.314,0.3772c0.362,0.2515 0.619,0.6191 0.772,1.1075c0.028,0.0968 0.047,0.1935 0.066,0.2902c0.019,0.0967 0.038,0.208 0.053,0.3289c0.009,0.1305 0.019,0.2805 0.023,0.4497c0.005,0.1693 0.005,0.3773 0.005,0.6191c0,0.2418 0,0.4449 -0.005,0.619c-0.004,0.1693 -0.014,0.3192 -0.023,0.445c-0.015,0.1257 -0.034,0.2369 -0.053,0.3337c-0.019,0.0967 -0.043,0.1934 -0.066,0.2901c-0.148,0.4837 -0.405,0.8561 -0.767,1.1027c-0.366,0.2515 -0.8,0.3773 -1.314,0.3773zm0,-0.9576c0.291,0 0.529,-0.0726 0.7,-0.2128c0.181,-0.1451 0.314,-0.3386 0.39,-0.5949c0.015,-0.0532 0.029,-0.1161 0.043,-0.1886c0.015,-0.0725 0.019,-0.1644 0.029,-0.2757c0.009,-0.1064 0.019,-0.237 0.019,-0.3917c0.009,-0.1499 0.014,-0.3337 0.014,-0.5514c0,-0.2176 0,-0.4014 -0.014,-0.5561c0,-0.1499 -0.014,-0.2854 -0.019,-0.3918c-0.005,-0.1064 -0.014,-0.1982 -0.029,-0.2708c-0.014,-0.0677 -0.028,-0.1354 -0.043,-0.1886c-0.08,-0.2515 -0.209,-0.4498 -0.39,-0.59c-0.176,-0.1403 -0.409,-0.2128 -0.705,-0.2128c-0.295,0 -0.528,0.0725 -0.704,0.2128c-0.176,0.1402 -0.3,0.3385 -0.386,0.59c-0.014,0.0532 -0.028,0.1209 -0.043,0.1886c-0.014,0.0726 -0.028,0.1644 -0.038,0.2708c-0.004,0.1113 -0.014,0.2419 -0.019,0.3918c-0.004,0.1547 -0.004,0.3385 -0.004,0.5561c0,0.2177 0,0.4015 0.004,0.5514c0.005,0.1547 0.01,0.2853 0.019,0.3917c0.01,0.1064 0.019,0.2032 0.038,0.2757c0.015,0.0677 0.029,0.1354 0.043,0.1886c0.086,0.2563 0.21,0.4498 0.386,0.5949c0.181,0.1402 0.414,0.2128 0.709,0.2128z"/>
   <path id="svg_87" fill="#F4F4F4" d="m156.26749,50.16174c0,-0.0581 0.029,-0.0919 0.086,-0.0919l0.795,0c0.062,0 0.109,0.029 0.147,0.0919l2.395,4.2366l0.029,0l0,-4.2366c0,-0.0581 0.028,-0.0919 0.09,-0.0919l0.748,0c0.057,0 0.09,0.029 0.09,0.0919l0,5.9631c0.005,0.0629 -0.029,0.0919 -0.086,0.0919l-0.785,0c-0.067,0 -0.114,-0.029 -0.148,-0.0919l-2.404,-4.2269l-0.033,0l0,4.2269c0.004,0.0629 -0.024,0.0919 -0.081,0.0919l-0.752,0c-0.058,0 -0.091,-0.029 -0.091,-0.0919l0,-5.9631z"/>
   <path id="svg_88" fill="#F4F4F4" d="m161.85649,50.16174c0,-0.0581 0.029,-0.0919 0.086,-0.0919l3.68,0c0.057,0 0.086,0.029 0.086,0.0919l0,0.7786c0,0.0629 -0.029,0.0919 -0.086,0.0919l-2.699,0c-0.029,0 -0.048,0.0145 -0.048,0.058l0,1.4945c0,0.0386 0.019,0.058 0.048,0.058l2.275,0c0.057,0 0.086,0.029 0.086,0.0919l0,0.7738c0,0.058 -0.029,0.0919 -0.086,0.0919l-2.275,0c-0.029,0 -0.048,0.0193 -0.048,0.058l0,1.5525c0,0.0338 0.019,0.0532 0.048,0.0532l2.699,0c0.057,0 0.091,0.029 0.091,0.0918l0,0.7787c0,0.0629 -0.029,0.0919 -0.086,0.0919l-3.68,0c-0.057,0 -0.091,-0.029 -0.091,-0.0919l0,-5.9631l0,-0.0097z"/>
   <path id="svg_89" fill="#F4F4F4" d="m168.54549,56.30864c-0.214,0 -0.428,-0.0193 -0.638,-0.0628c-0.205,-0.0436 -0.404,-0.0968 -0.59,-0.1741c-0.186,-0.0726 -0.362,-0.1548 -0.519,-0.2564c-0.157,-0.1015 -0.295,-0.2079 -0.409,-0.3192c-0.048,-0.0483 -0.048,-0.0967 -0.02,-0.1354l0.534,-0.648c0.038,-0.0532 0.081,-0.0532 0.119,-0.0146c0.095,0.0823 0.195,0.1548 0.319,0.237c0.114,0.0774 0.242,0.1451 0.381,0.208c0.133,0.0629 0.276,0.1112 0.428,0.1499c0.152,0.0435 0.305,0.058 0.476,0.058c0.352,0 0.619,-0.0822 0.809,-0.2466c0.196,-0.1644 0.296,-0.3724 0.296,-0.6384c0,-0.2225 -0.081,-0.4014 -0.234,-0.5417c-0.157,-0.1402 -0.433,-0.2418 -0.842,-0.3046l-0.305,-0.0436c-0.576,-0.0822 -1.009,-0.2708 -1.319,-0.5561c-0.3,-0.2854 -0.452,-0.682 -0.452,-1.1946c0,-0.2757 0.043,-0.532 0.133,-0.7593c0.095,-0.2273 0.229,-0.4256 0.4,-0.5852c0.172,-0.1596 0.381,-0.2902 0.629,-0.3772c0.242,-0.0871 0.518,-0.1306 0.823,-0.1306c0.367,0 0.724,0.058 1.048,0.1644c0.333,0.1161 0.614,0.2612 0.852,0.4498c0.038,0.0387 0.043,0.0822 0.014,0.1258l-0.414,0.6674c-0.034,0.0483 -0.076,0.058 -0.124,0.029c-0.243,-0.1645 -0.471,-0.2854 -0.695,-0.3627c-0.229,-0.0774 -0.462,-0.1161 -0.709,-0.1161c-0.3,0 -0.529,0.0774 -0.686,0.237c-0.157,0.1547 -0.238,0.3482 -0.238,0.59c0,0.208 0.086,0.3869 0.243,0.5271c0.166,0.1403 0.443,0.2419 0.842,0.2999l0.31,0.0484c0.571,0.087 1.004,0.2708 1.304,0.5561c0.296,0.2854 0.453,0.6916 0.453,1.2236c0,0.2708 -0.053,0.5272 -0.138,0.7593c-0.091,0.2321 -0.234,0.4353 -0.415,0.6045c-0.19,0.1693 -0.423,0.3047 -0.699,0.3966c-0.272,0.0967 -0.596,0.1451 -0.957,0.1451"/>
   <path id="svg_90" fill="#F4F4F4" d="m40.82409,56.10074c0.338,0.1161 0.2523,0.6287 -0.1048,0.6287c-0.1523,0 -0.3094,-0.0097 -0.4665,-0.029l-8.6265,-1.0833c-0.1,-0.0146 -0.1952,0.0241 -0.2666,0.0967l-1.1616,1.18c-0.1095,0.1064 -0.2762,0.1258 -0.4047,0.0436c-0.4094,-0.2805 -0.8236,-0.5659 -1.233,-0.8609c-1.0426,-0.7593 -2.0519,-1.5911 -2.9469,-2.423c-0.2714,-0.2515 0.019,-0.6867 0.3523,-0.532c1.2996,0.5997 2.7707,0.9673 4.3037,1.2236c2.685,0.4498 5.551,0.5707 8.0219,1.0737c0.9283,0.1886 1.7662,0.4207 2.5232,0.6867"/>
   <path id="svg_91" fill="#F4F4F4" d="m41.50479,50.35534c0.3475,0.353 -0.0143,0.9382 -0.4809,0.7786c-0.0095,-0.0048 -0.019,-0.0048 -0.0285,-0.0097c-0.5332,-0.1789 -1.114,-0.3143 -1.771,-0.4304c-0.9331,-0.1693 -2.0186,-0.2853 -3.3087,-0.3966c-5.6606,-0.503 -10.6689,-0.4498 -15.601,-2.186c-0.0096,-0.0048 -0.0191,-0.0097 -0.0286,-0.0097c-1.7044,-0.5997 -3.1469,-1.7797 -4.1181,-3.3225c-0.0571,-0.0919 -0.1095,-0.1789 -0.1666,-0.266c-0.7712,-1.2236 -1.571,-2.4907 -2.3756,-3.7674c-0.2333,-0.3676 0.1047,-0.827 0.5189,-0.7061c0.4285,0.1209 0.8617,0.2369 1.2997,0.3433c3.5087,0.8754 7.3411,1.359 11.1259,2.2973c6.2842,1.5621 10.5927,3.8738 13.6205,6.4612c0.4618,0.3918 0.8903,0.7932 1.2949,1.1946c0.0048,0.0097 0.0143,0.0145 0.0191,0.0242"/>
   <path id="svg_92" fill="#F4F4F4" d="m47.78899,45.22884c0.1857,0.2998 -0.1809,0.6383 -0.457,0.4159c-1.3331,-1.0495 -2.9517,-1.8862 -4.9607,-2.5778c-8.0314,-2.7711 -21.5282,-4.0431 -31.9876,-10.7268c-1.09494,-0.6965 -2.1804,-1.4219 -3.17539,-2.2779c-0.21424,-0.1886 -0.76173,-0.7883 -1.06641,-1.2043c-3.43251,-4.6138 -5.36538,-8.4828 -5.52724,-8.7681c-0.18091,-0.3096 -0.70936,-1.6879 -0.59986,-2.5971c0.03333,-0.2563 0.33802,-0.3676 0.52845,-0.1935c0.39038,0.3821 0.79504,0.74 1.21399,1.0882c6.86977,5.7842 16.39606,7.8783 27.17916,12.6759c12.1923,5.4215 15.701,9.097 18.8526,14.1606"/>
   <path id="svg_93" fill="#F4F4F4" d="m48.88399,38.04684c0.1476,0.3192 -0.2809,0.59 -0.4999,0.3192c-1.9281,-2.3988 -4.4275,-4.1689 -7.9695,-6.0937c-13.0112,-7.0707 -27.2744,-8.6521 -37.73854,-19.8239c-0.12854,-0.1355 -0.25708,-0.2805 -0.38086,-0.4208c-0.48559,-0.5271 -0.34277,-1.388 0.29041,-1.712c0.51892,-0.266 1.1045,-0.41596 1.71387,-0.41596l0.09998,0l1.55677,0.04353c0.86645,0.02418 1.72815,-0.14025 2.53272,-0.47396c0.17615,-0.07738 0.23804,-0.29501 0.12854,-0.45461l-0.47132,-0.67708c-0.16662,-0.24665 -0.30468,-0.5078 -0.41418,-0.77864c-0.34754,-0.88987 0.63794,-1.70237 1.4187,-1.16554c0.01905,0.01451 0.03809,0.02418 0.05713,0.03869c10.27848,7.01747 21.93758,12.01817 31.32578,20.45747c4.2371,3.8061 6.7031,7.5107 8.3504,11.1621"/>
   <path id="svg_94" fill="#F4F4F4" d="m62.04279,47.50674l-10.7689,2.7616c-0.8474,0.2176 -1.5853,-0.6239 -1.2759,-1.4558l0.0096,-0.0241c0.576,-1.538 1.2616,-3.1339 1.9804,-4.817c2.8613,-6.7079 -0.1047,-11.1283 -3.9657,-15.3261c-9.2025,-9.9966 -23.0992,-17.2317 -34.5012,-25.55012c-0.7188,-0.52715 -0.557,-1.65401 0.2809,-1.95386l2.628,-0.92856c0.4046,-0.14025 0.8283,-0.2128 1.2425,-0.2128c0.7094,0 1.4187,0.20313 2.0376,0.60454l15.3154,9.9144c0.138,0.087 0.2951,0.1451 0.457,0.1596l6.6317,0.798c1.0617,0.1305 2.0186,0.7061 2.6327,1.5863l12.3923,16.9463c0.1856,0.2515 0.4665,0.4111 0.776,0.4401l6.8602,0.6045c0.0524,0 0.1048,0.0145 0.1619,0.0194c0.3761,0.0483 0.6903,0.2998 0.8426,0.6529c0.7332,1.6878 1.195,3.4821 1.2902,5.3731c0.2,4.0044 -1.7186,7.5687 -4.5846,10.161c-0.1285,0.1161 -0.2809,0.1983 -0.4475,0.2418"/>
  </g>
 </g>
</svg>