<svg width="22" height="22" viewBox="0 0 22 22" fill="none" xmlns="http://www.w3.org/2000/svg">
<g clip-path="url(#clip0_1309_10766)">
<path d="M11 0C4.91546 0 0 4.91546 0 11C0 17.0845 4.91546 22 11 22C17.0845 22 22 17.0845 22 11C22 4.91546 17.0845 0 11 0ZM16.8986 14.0024C16.7657 14.2947 16.3406 14.4807 15.4372 14.6401C15.4106 14.6667 15.3841 14.7995 15.3841 14.8261C15.3575 14.9324 15.3575 14.9855 15.3309 15.0918C15.3043 15.2512 15.1715 15.3575 15.0121 15.3575C14.9589 15.3575 14.8527 15.3575 14.7198 15.3309C14.5604 15.3043 14.3744 15.2778 14.1353 15.2778C14.0024 15.2778 13.843 15.3043 13.7101 15.3043C13.4179 15.3575 13.2053 15.5435 12.913 15.7295C12.4348 16.0483 11.8502 16.2077 11.186 16.2077H11.0531C10.3092 16.2077 9.91063 16.0217 9.53865 15.7295C9.24638 15.5435 9.03382 15.3841 8.74155 15.3043C8.6087 15.2778 8.44928 15.2778 8.31643 15.2778C8.05072 15.2778 7.86473 15.3043 7.70531 15.3309C7.59903 15.3575 7.51932 15.3575 7.43961 15.3575C7.20048 15.3575 7.12077 15.1981 7.0942 15.0918C7.0942 14.9855 7.06763 14.9324 7.06763 14.8261C7.04106 14.7729 7.01449 14.6667 7.01449 14.587C6.11111 14.4275 5.57971 14.2415 5.5 13.9493C5.47343 13.9227 5.47343 13.843 5.47343 13.8164C5.47343 13.657 5.57971 13.5242 5.71256 13.4976C7.22705 13.2319 7.91787 11.6908 7.94444 11.6111C8.05072 11.4517 8.05072 11.3188 7.99758 11.2657C7.94444 11.0797 7.59903 10.9734 7.41304 10.9203C7.30676 10.8937 7.25362 10.8937 7.22705 10.8672C6.66908 10.628 6.58937 10.3889 6.61594 10.1763C6.66908 9.83092 7.20048 9.6715 7.46618 9.75121C7.65217 9.85749 7.81159 9.91063 7.97101 9.91063C8.02415 9.91063 8.07729 9.88406 8.13043 9.88406C8.13043 9.83092 8.13043 9.72464 8.10386 9.64493C8.05072 8.84783 7.97101 7.86473 8.26328 7.28019C9.03382 5.55314 10.6546 5.44686 11.1329 5.44686H11.372C11.8502 5.44686 13.471 5.57971 14.2947 7.28019C14.5604 7.86473 14.4807 8.82126 14.4275 9.64493V9.88406C14.4275 9.88406 14.4807 9.91063 14.5338 9.91063C14.6667 9.91063 14.8261 9.85749 15.0121 9.75121C15.1184 9.72464 15.1981 9.72464 15.2512 9.72464C15.3575 9.72464 15.4372 9.72464 15.5435 9.75121C15.7826 9.85749 15.8889 10.0435 15.8889 10.2295C15.8889 10.4686 15.7029 10.6812 15.3043 10.8406C15.2512 10.8671 15.1981 10.8671 15.1449 10.8937C14.9058 10.9469 14.587 11.0531 14.5338 11.2391C14.5072 11.3454 14.5072 11.4251 14.587 11.5845C14.6401 11.7705 15.3043 13.2319 16.7657 13.4976C16.9251 13.4976 17.058 13.657 17.058 13.8164C17.058 13.843 17.0314 13.9227 17.0048 13.9493L16.8986 14.0024Z" fill="white"/>
</g>
<defs>
<clipPath id="clip0_1309_10766">
<rect width="22" height="22" fill="white"/>
</clipPath>
</defs>
</svg>
