<svg width="22" height="22" viewBox="0 0 22 22" fill="none" xmlns="http://www.w3.org/2000/svg">
<g clip-path="url(#clip0_1309_10765)">
<path d="M9.87207 9.08691V12.3019L12.8178 10.6811L11.199 9.80431L9.87207 9.08691Z" fill="white"/>
<path d="M10.9867 0C4.93607 0 0 4.91546 0 11C0 17.0845 4.93607 22 10.9867 22C17.0374 22 22 17.0845 22 11C22 4.91546 17.0639 0 10.9867 0ZM16.4536 11.2126C16.4536 12.1425 16.3474 13.0459 16.3474 13.0459C16.3474 13.0459 16.2147 13.8164 15.8963 14.1884C15.4982 14.6401 15.0205 14.6401 14.8347 14.6667C13.3221 14.7995 11.0133 14.7995 11.0133 14.7995C11.0133 14.7995 8.1737 14.7729 7.29795 14.6667C7.03257 14.6401 6.52835 14.6401 6.10374 14.1884C5.78528 13.843 5.65259 13.0459 5.65259 13.0459C5.65259 13.0459 5.54644 12.1425 5.54644 11.2126V10.3623C5.54644 9.43237 5.65259 8.52899 5.65259 8.52899C5.65259 8.52899 5.78528 7.75845 6.10374 7.38647C6.52835 6.93478 6.97949 6.93478 7.1918 6.90821C8.70446 6.77536 10.9602 6.77536 10.9602 6.77536H10.9867C10.9867 6.77536 13.269 6.77536 14.8082 6.90821C14.994 6.93478 15.4982 6.93478 15.8697 7.38647C16.1882 7.73188 16.3209 8.52899 16.3209 8.52899C16.3209 8.52899 16.427 9.43237 16.427 10.3623V11.2126H16.4536Z" fill="white"/>
</g>
<defs>
<clipPath id="clip0_1309_10765">
<rect width="22" height="22" fill="white"/>
</clipPath>
</defs>
</svg>
