<svg width="21" height="22" viewBox="0 0 21 22" fill="none" xmlns="http://www.w3.org/2000/svg">
<g clip-path="url(#clip0_1309_10768)">
<path d="M10.4873 0C4.68637 0 0 4.91546 0 11C0 17.0845 4.68637 22 10.4873 22C16.2883 22 21 17.0845 21 11C21 4.91546 16.2883 0 10.4873 0ZM8.20748 14.4275C8.20748 14.6667 8.15682 14.7464 7.92883 14.7464C7.54885 14.7198 7.21954 14.7198 6.83957 14.7464C6.66224 14.7464 6.56092 14.6932 6.56092 14.4541V9.35266C6.56092 9.16667 6.61158 9.06039 6.81423 9.06039H7.95416C8.13148 9.06039 8.20748 9.16667 8.20748 9.35266V14.4275ZM7.37153 8.21014C6.83957 8.21014 6.40893 7.75845 6.40893 7.22705C6.40893 6.64251 6.83957 6.19082 7.37153 6.19082C7.9035 6.19082 8.33414 6.61594 8.33414 7.20048C8.33414 7.78502 7.92883 8.21014 7.37153 8.21014ZM14.2871 14.7464C13.9578 14.7198 13.5778 14.7198 13.2485 14.7464C12.9952 14.7464 12.9445 14.6401 12.9445 14.4275C12.9698 13.5242 12.9445 12.6473 12.9445 11.7705C12.9445 11.6111 12.9445 11.4517 12.9192 11.2923C12.8179 10.7343 12.5899 10.442 12.0832 10.442C11.5259 10.4155 11.1966 10.6812 11.07 11.2391C11.0193 11.558 10.9686 11.8502 10.9686 12.1691V14.3744C10.9686 14.6401 10.918 14.7198 10.6647 14.7198C10.3353 14.6932 9.9807 14.6932 9.65139 14.7198C9.4234 14.7198 9.37274 14.6135 9.37274 14.401V9.45894C9.37274 9.17552 9.50784 9.03382 9.77805 9.03382H10.6647C10.842 9.03382 10.9433 9.1401 10.918 9.32609V9.37923C10.918 9.37923 10.8673 9.6715 10.9686 9.72464C11.0953 9.75121 11.1206 9.56522 11.1966 9.48551C11.5766 9.06039 12.0326 8.8744 12.5645 8.8744C13.5271 8.8744 14.2871 9.16667 14.5404 10.4155C14.5657 10.6812 14.5911 10.9203 14.5911 11.186C14.6164 12.2488 14.5911 13.3116 14.6164 14.401C14.6164 14.6401 14.5151 14.6932 14.3124 14.6932L14.2871 14.7464Z" fill="white"/>
</g>
<defs>
<clipPath id="clip0_1309_10768">
<rect width="21" height="22" fill="white"/>
</clipPath>
</defs>
</svg>
